<svg width="12" height="22" viewBox="0 0 12 22" fill="none" xmlns="http://www.w3.org/2000/svg">
<path d="M9.60938 20.8906C9.86719 21.1484 10.1953 21.2891 10.582 21.2891C11.3555 21.2891 11.9766 20.6797 11.9766 19.9062C11.9766 19.5195 11.8125 19.168 11.543 18.8984L3.33984 10.8828L11.543 2.89062C11.8125 2.62109 11.9766 2.25781 11.9766 1.88281C11.9766 1.10938 11.3555 0.5 10.582 0.5C10.1953 0.5 9.86719 0.640625 9.60938 0.898438L0.492188 9.80469C0.164062 10.1094 0.0117188 10.4844 0 10.8945C0 11.3047 0.164062 11.6562 0.492188 11.9727L9.60938 20.8906Z" fill="black"/>
</svg>
