<svg width="200" height="180" viewBox="0 0 200 180" fill="none" xmlns="http://www.w3.org/2000/svg">
<g clip-path="url(#clip0_2_100)">
<path d="M0.059047 57.8098C2.18348 25.419 45.3127 0 98.1874 0C152.344 0 196.417 27.0231 196.417 60.2468V60.4627C196.417 61.4807 196.417 62.5604 196.417 63.5476C196.182 66.008 195.709 68.4443 195.001 70.8278C194.227 73.4799 193.188 76.0614 191.898 78.5398C190.908 80.4165 189.782 82.2303 188.526 83.9691C185.095 88.712 180.977 93.0081 176.286 96.7404C168.835 102.601 160.426 107.358 151.366 110.838C143.668 113.894 135.644 116.209 127.424 117.748C117.861 119.555 108.121 120.464 98.3561 120.463H97.5468C66.3548 120.278 37.8267 111.208 19.3138 95.7841L19.0777 95.599C11.7287 89.7535 6.07536 82.335 2.62178 74.0051L2.28465 73.0797C1.01244 69.4529 0.275221 65.687 0.0926981 61.8818C0.0926981 60.8638 0.0926981 60.2776 0.0926981 60.2468C-0.0421864 59.383 -0.00839528 58.6118 0.059047 57.8098Z" fill="#EE652A"/>
<path d="M41.8098 59.5785C40.4838 59.5785 39.212 59.0517 38.2743 58.114C37.3366 57.1764 36.8098 55.9046 36.8098 54.5785C36.8098 53.2524 37.3366 51.9807 38.2743 51.043C39.212 50.1053 40.4838 49.5785 41.8098 49.5785C42.4664 49.5785 43.1166 49.7078 43.7232 49.9591C44.3299 50.2104 44.8811 50.5787 45.3454 51.043C45.8097 51.5073 46.178 52.0585 46.4292 52.6651C46.6805 53.2717 46.8098 53.9219 46.8098 54.5785C46.8098 55.2351 46.6805 55.8853 46.4292 56.4919C46.178 57.0986 45.8097 57.6497 45.3454 58.114C44.8811 58.5783 44.3299 58.9466 43.7232 59.1979C43.1166 59.4492 42.4664 59.5785 41.8098 59.5785Z" fill="#FAF6F1"/>
<path d="M55.0131 44C53.6857 43.9931 52.4146 43.4627 51.4759 42.5241C50.5373 41.5854 50.0069 40.3143 50 38.9869C50.0069 37.6619 50.5381 36.3935 51.4775 35.459C52.4169 34.5245 53.6881 34 55.0131 34C56.3357 34 57.6041 34.5254 58.5394 35.4606C59.4746 36.3958 60 37.6643 60 38.9869C60 40.3119 59.4754 41.5831 58.541 42.5224C57.6065 43.4618 56.3381 43.9931 55.0131 44Z" fill="#FAF6F1"/>
<path d="M69 65C67.6715 64.9931 66.3998 64.4618 65.4629 63.5224C64.5259 62.5831 64 61.3119 64 59.9869C64 59.332 64.1294 58.6835 64.3806 58.0785C64.6319 57.4734 65.0002 56.9237 65.4645 56.4606C65.9288 55.9975 66.48 55.6302 67.0866 55.3796C67.6932 55.129 68.3434 55 69 55C70.3261 55 71.5978 55.5254 72.5355 56.4606C73.4732 57.3958 74 58.6643 74 59.9869C74 61.3119 73.4741 62.5831 72.5372 63.5224C71.6002 64.4618 70.3285 64.9931 69 65Z" fill="#FAF6F1"/>
<path d="M81.0131 49C79.6857 48.9931 78.4146 48.4627 77.4759 47.5241C76.5373 46.5854 76.0069 45.3143 76 43.9869C76.0069 42.6619 76.5381 41.3935 77.4775 40.459C78.4169 39.5245 79.6881 39 81.0131 39C82.3357 39 83.6041 39.5254 84.5394 40.4606C85.4746 41.3958 86 42.6643 86 43.9869C86 45.3119 85.4754 46.5831 84.541 47.5224C83.6065 48.4618 82.3381 48.9931 81.0131 49Z" fill="#FAF6F1"/>
<path d="M95.9869 59C94.6643 59 93.3959 58.4746 92.4607 57.5394C91.5255 56.6042 91.0001 55.3357 91.0001 54.0131C90.9966 53.356 91.1231 52.7047 91.3721 52.0967C91.6212 51.4886 91.988 50.9357 92.4514 50.4699C92.9148 50.004 93.4657 49.6344 94.0725 49.3821C94.6792 49.1298 95.3298 49 95.9869 49C97.3165 49 98.5916 49.5282 99.5317 50.4683C100.472 51.4085 101 52.6836 101 54.0131C100.993 55.3381 100.462 56.6065 99.5225 57.541C98.5831 58.4755 97.312 59 95.9869 59Z" fill="#FAF6F1"/>
<path d="M193.492 137.861C185.938 165.625 147.429 177.964 113.876 179.815C71.7248 182.283 22.5931 169.882 10.4535 141.378C6.97861 131.858 4.71558 122.004 3.70923 112.01C18.8837 137.429 50.2781 163.589 108.784 163.589C159.939 163.589 185.095 138.632 196.729 114.447C196.378 122.322 195.295 130.155 193.492 137.861Z" fill="#EE652A"/>
<path d="M172.787 116.267L148.542 148.504L102.074 133.08H101.197C42.2189 132.679 14.5338 111.763 1.82096 95.6915C1.65235 93.7789 1.48373 91.8972 1.38257 90.0463C4.67779 94.3872 8.51414 98.3625 12.8141 101.892L13.0164 102.108C33.2491 118.951 64.1376 128.73 97.5553 128.884H98.3983C108.797 128.896 119.169 127.934 129.354 126.015C138.19 124.362 146.813 121.871 155.083 118.581C165.025 114.78 174.253 109.575 182.431 103.157C187.744 98.8766 192.385 93.9457 196.223 88.5038C196.561 87.9794 196.931 87.5167 197.269 86.9923C197.269 88.2262 197.269 89.4293 197.269 90.6941C191.742 101.06 183.291 109.889 172.787 116.267Z" fill="#F8A700"/>
<path d="M200 99.455C193.244 108.193 184.442 115.444 174.237 120.679L150.295 152.792L103.591 138.602C87.3707 139.578 71.0986 137.618 55.7074 132.833C47.613 130.245 39.8099 126.949 32.406 122.992C12.8141 112.72 2.73145 102.139 2.05703 102.756C1.38261 103.373 14.0955 121.45 36.7561 136.01C58.6671 149.753 84.3941 157.519 110.943 158.406C122.003 158.715 135.323 158.961 150.43 152.792C160.286 148.609 169.127 142.661 176.429 135.301C187.087 125.094 195.137 112.851 200 99.455Z" fill="#F8A700"/>
</g>
<defs>
<clipPath id="clip0_2_100">
<rect width="200" height="180" fill="white"/>
</clipPath>
</defs>
</svg>
