<svg width="200" height="180" viewBox="0 0 200 180" fill="none" xmlns="http://www.w3.org/2000/svg">
<path d="M100 0C48.2501 0 6.25 33.584 6.25 92.6948H193.75C193.687 33.584 151.75 0 100 0ZM187.719 129.024H12.2813C9.02666 129.015 5.90762 127.535 3.60622 124.91C1.30483 122.284 0.00825011 118.726 0 115.013C0.00827425 111.303 1.30585 107.748 3.60813 105.128C5.91041 102.509 9.02953 101.037 12.2813 101.037H117.094L150.562 121.395L171.75 101.037H187.719C190.971 101.037 194.09 102.509 196.392 105.128C198.694 107.748 199.992 111.303 200 115.013C200.004 116.857 199.69 118.685 199.075 120.391C198.46 122.097 197.556 123.648 196.416 124.956C195.275 126.264 193.92 127.302 192.428 128.012C190.936 128.723 189.336 129.091 187.719 129.095V129.024Z" fill="#F8A700"/>
<path d="M22.3581 179.929H178.608V180C183.581 180 188.35 177.746 191.866 173.735C195.382 169.723 197.358 164.282 197.358 158.609V139.856H3.60622L3.60813 158.538C3.60813 164.211 5.58356 169.652 9.09986 173.663C12.6162 177.675 17.3853 179.929 22.3581 179.929Z" fill="#F8A700"/>
<circle cx="78" cy="24" r="5" fill="#FAF6F1"/>
<circle cx="116" cy="22" r="5" fill="#FAF6F1"/>
<circle cx="137" cy="35" r="5" fill="#FAF6F1"/>
<circle cx="63" cy="39" r="5" fill="#FAF6F1"/>
<circle cx="99" cy="39" r="5" fill="#FAF6F1"/>
</svg>
