<svg width="300" height="180" viewBox="0 0 300 180" fill="none" xmlns="http://www.w3.org/2000/svg">
<g clip-path="url(#clip0_2_60)">
<path d="M134.529 101.335L191.667 117.632L208.514 101.335H134.529Z" fill="#F8A700"/>
<path d="M221.449 0.146484H78.8044C35.3261 0.146484 0.217407 31.0559 0.217407 69.2167H300C300 30.9095 264.855 0.146484 221.449 0.146484Z" fill="#F8A700"/>
<path d="M292.21 78.1526H8.00725C7.03441 78.0084 6.04229 78.0776 5.09829 78.3556C4.15429 78.6336 3.28057 79.1138 2.53658 79.7636C1.79259 80.4134 1.19577 81.2175 0.786688 82.1212C0.377606 83.025 0.165833 84.0072 0.165833 85.001C0.165833 85.9949 0.377606 86.9771 0.786688 87.8808C1.19577 88.7846 1.79259 89.5887 2.53658 90.2384C3.28057 90.8882 4.15429 91.3684 5.09829 91.6464C6.04229 91.9244 7.03441 91.9936 8.00725 91.8494H292.21C293.183 91.9936 294.175 91.9244 295.119 91.6464C296.063 91.3684 296.937 90.8882 297.681 90.2384C298.425 89.5887 299.022 88.7846 299.431 87.8808C299.84 86.9771 300.052 85.9949 300.052 85.001C300.052 84.0072 299.84 83.025 299.431 82.1212C299.022 81.2175 298.425 80.4134 297.681 79.7636C296.937 79.1138 296.063 78.6336 295.119 78.3556C294.175 78.0776 293.183 78.0084 292.21 78.1526Z" fill="#F8A700"/>
<path d="M281.377 101.335H222.862L195.507 129.351L110.326 101.335H16.3406C7.31887 101.335 -0.108643 107.744 -0.108643 115.508V115.874C-0.108643 123.674 7.13771 130.047 16.3406 130.047H281.268C290.326 130.047 297.681 123.674 297.681 115.874V115.508C297.79 107.744 290.435 101.335 281.377 101.335Z" fill="#F8A700"/>
<path d="M0.217407 140.667V147.992C0.217407 165.607 16.4493 179.89 36.4493 179.89H263.732C283.768 179.89 299.964 165.607 299.964 147.992V140.667H0.217407Z" fill="#F8A700"/>
<g clip-path="url(#clip1_2_60)">
<path d="M54.0766 43.3C52.7505 43.3 51.4787 42.7732 50.541 41.8355C49.6033 40.8978 49.0765 39.6261 49.0765 38.3C49.0765 36.9739 49.6033 35.7021 50.541 34.7645C51.4787 33.8268 52.7505 33.3 54.0766 33.3C54.7332 33.3 55.3833 33.4293 55.99 33.6806C56.5966 33.9319 57.1478 34.3002 57.6121 34.7645C58.0764 35.2287 58.4447 35.7799 58.696 36.3866C58.9472 36.9932 59.0765 37.6434 59.0765 38.3C59.0765 38.9566 58.9472 39.6068 58.696 40.2134C58.4447 40.82 58.0764 41.3712 57.6121 41.8355C57.1478 42.2998 56.5966 42.6681 55.99 42.9194C55.3833 43.1707 54.7332 43.3 54.0766 43.3Z" fill="#FAF6F1"/>
<path d="M77.0132 32.5C75.6858 32.4931 74.4147 31.9627 73.476 31.0241C72.5373 30.0854 72.007 28.8143 72.0001 27.4869C72.007 26.1619 72.5382 24.8935 73.4776 23.959C74.417 23.0245 75.6882 22.5 77.0132 22.5C78.3358 22.5 79.6042 23.0254 80.5394 23.9606C81.4746 24.8958 82.0001 26.1643 82.0001 27.4869C82.0001 28.8119 81.4755 30.0831 80.541 31.0224C79.6065 31.9618 78.3382 32.4931 77.0132 32.5Z" fill="#FAF6F1"/>
<path d="M92.0712 49.4006C90.7428 49.3936 89.471 48.8624 88.5341 47.923C87.5972 46.9836 87.0712 45.7125 87.0712 44.3875C87.0712 43.7326 87.2006 43.0841 87.4519 42.4791C87.7031 41.874 88.0714 41.3243 88.5357 40.8612C89 40.3981 89.5512 40.0308 90.1578 39.7802C90.7645 39.5296 91.4146 39.4006 92.0712 39.4006C93.3973 39.4006 94.6691 39.926 95.6067 40.8612C96.5444 41.7964 97.0712 43.0648 97.0712 44.3875C97.0712 45.7125 96.5453 46.9836 95.6084 47.923C94.6715 48.8624 93.3997 49.3936 92.0712 49.4006Z" fill="#FAF6F1"/>
<path d="M100.09 32.5C98.7627 32.4931 97.4916 31.9627 96.5529 31.0241C95.6143 30.0854 95.0839 28.8143 95.077 27.4869C95.0839 26.1619 95.6151 24.8935 96.5545 23.959C97.4939 23.0245 98.7651 22.5 100.09 22.5C101.413 22.5 102.681 23.0254 103.616 23.9606C104.552 24.8958 105.077 26.1643 105.077 27.4869C105.077 28.8119 104.552 30.0831 103.618 31.0224C102.683 31.9618 101.415 32.4931 100.09 32.5Z" fill="#FAF6F1"/>
<path d="M122.448 41.6346C121.126 41.6346 119.857 41.1092 118.922 40.174C117.987 39.2387 117.461 37.9703 117.461 36.6477C117.458 35.9906 117.584 35.3393 117.833 34.7313C118.082 34.1232 118.449 33.5703 118.913 33.1045C119.376 32.6386 119.927 32.2689 120.534 32.0167C121.141 31.7644 121.791 31.6346 122.448 31.6346C123.778 31.6346 125.053 32.1628 125.993 33.1029C126.933 34.043 127.461 35.3181 127.461 36.6477C127.454 37.9727 126.923 39.2411 125.984 40.1756C125.044 41.11 123.773 41.6346 122.448 41.6346Z" fill="#FAF6F1"/>
</g>
</g>
<defs>
<clipPath id="clip0_2_60">
<rect width="300" height="180" fill="white"/>
</clipPath>
<clipPath id="clip1_2_60">
<rect width="79.1557" height="30.4" fill="white" transform="translate(49.0765 20)"/>
</clipPath>
</defs>
</svg>
