<svg width="200" height="180" viewBox="0 0 200 180" fill="none" xmlns="http://www.w3.org/2000/svg">
<path d="M156.25 67.478H12.5C5.56641 67.478 0 72.5063 0 78.7302V146.243C0 164.88 16.7969 180 37.5 180H112.5C133.203 180 150 164.88 150 146.243H156.25C180.371 146.243 200 128.574 200 106.861C200 85.1475 180.391 67.478 156.25 67.478ZM156.25 123.739H150V89.9824H156.25C166.602 89.9824 175 97.5425 175 106.861C175 116.179 166.602 123.739 156.25 123.739ZM42.1484 35.3741C46.9922 37.6245 50 42.6529 50 47.7867C50 52.4458 54.1992 56.1871 59.375 56.1871C64.5508 56.1871 68.75 52.0414 68.75 47.6812C68.75 36.6611 62.1758 26.3583 51.5977 20.799C46.7578 18.2602 43.75 13.5484 43.75 8.50244C43.75 3.84333 39.5508 0.0140652 34.375 0.0140652C29.1992 0.0140652 25 3.84333 25 8.50244C25 19.5261 31.5742 29.8254 42.1484 35.3741ZM85.8984 35.3741C90.7422 37.6245 93.75 42.6529 93.75 47.7867C93.75 52.4458 97.9492 56.1766 103.125 56.1766C108.301 56.1766 112.5 52.0414 112.5 47.6812C112.5 36.6611 105.926 26.3583 95.3477 20.799C90.5078 18.2602 87.5 13.5484 87.5 8.50244C87.5 3.84333 83.3008 0 78.125 0C72.9492 0 68.75 3.84333 68.75 8.50244C68.75 19.5261 75.3125 29.8254 85.8984 35.3741Z" fill="#F8A700"/>
<g clip-path="url(#clip0_2_21)">
<path d="M101.002 100.004C101.002 98.6776 101.528 97.4057 102.465 96.4676C103.402 95.5296 104.674 95.0023 106 95.0018C107.326 95.0014 108.598 95.5277 109.536 96.465C110.474 97.4024 111.002 98.6739 111.002 100C111.003 100.657 110.874 101.307 110.623 101.914C110.372 102.52 110.004 103.072 109.54 103.536C109.076 104.001 108.525 104.369 107.918 104.621C107.312 104.872 106.662 105.002 106.005 105.002C105.348 105.002 104.698 104.873 104.091 104.622C103.485 104.371 102.933 104.003 102.469 103.539C102.004 103.075 101.636 102.524 101.384 101.917C101.132 101.31 101.003 100.66 101.002 100.004Z" fill="#FAF6F1"/>
<path d="M119.278 110.384C119.285 109.056 119.814 107.785 120.753 106.846C121.691 105.907 122.962 105.376 124.289 105.369C125.614 105.375 126.883 105.906 127.818 106.845C128.753 107.784 129.278 109.055 129.278 110.38C129.279 111.703 128.754 112.971 127.819 113.907C126.885 114.842 125.617 115.368 124.294 115.369C122.969 115.369 121.698 114.845 120.758 113.911C119.818 112.977 119.286 111.709 119.278 110.384Z" fill="#FAF6F1"/>
<path d="M101.002 126.004C101.009 124.675 101.539 123.403 102.478 122.466C103.417 121.529 104.688 121.002 106.013 121.002C106.668 121.002 107.317 121.131 107.922 121.382C108.527 121.633 109.077 122.001 109.54 122.465C110.003 122.929 110.371 123.48 110.622 124.087C110.873 124.693 111.002 125.343 111.002 126C111.003 127.326 110.478 128.598 109.544 129.536C108.609 130.474 107.341 131.001 106.018 131.002C104.693 131.002 103.422 130.477 102.482 129.54C101.542 128.604 101.01 127.332 101.002 126.004Z" fill="#FAF6F1"/>
<path d="M119.272 130.786C119.278 129.458 119.808 128.187 120.746 127.248C121.684 126.309 122.955 125.778 124.283 125.771C125.608 125.777 126.876 126.308 127.811 127.247C128.746 128.186 129.271 129.457 129.272 130.782C129.273 132.104 128.748 133.373 127.813 134.309C126.878 135.244 125.61 135.77 124.288 135.771C122.963 135.771 121.691 135.247 120.751 134.313C119.812 133.379 119.28 132.111 119.272 130.786Z" fill="#FAF6F1"/>
<path d="M108.563 147.97C108.563 146.647 109.087 145.379 110.022 144.443C110.957 143.507 112.225 142.982 113.548 142.981C114.205 142.977 114.856 143.104 115.464 143.352C116.073 143.601 116.626 143.968 117.092 144.431C117.558 144.894 117.928 145.445 118.18 146.052C118.433 146.658 118.563 147.309 118.563 147.966C118.564 149.296 118.036 150.571 117.097 151.511C116.157 152.452 114.882 152.981 113.553 152.981C112.228 152.975 110.959 152.444 110.024 151.505C109.089 150.566 108.564 149.295 108.563 147.97Z" fill="#FAF6F1"/>
</g>
<defs>
<clipPath id="clip0_2_21">
<rect width="66.1941" height="29.0665" fill="white" transform="matrix(0.000492144 1 -1 0.000368562 129.27 92.6717)"/>
</clipPath>
</defs>
</svg>
