<svg width="200" height="180" viewBox="0 0 200 180" fill="none" xmlns="http://www.w3.org/2000/svg">
<path d="M200 57.8973C200 68.7054 191.562 77.1429 177.773 77.1429H175V167.143C175 174.242 169.402 180 162.5 180H37.5C30.5977 180 25 174.242 25 167.143V77.1429H22.2227C8.42187 77.1429 0 68.7054 0 57.8973C0 32.1429 37.5 0 100 0C162.5 0 200 32.1429 200 57.8973Z" fill="#F8A700"/>
<path d="M47.9241 78.9999C47.9315 77.6739 48.4653 76.4053 49.4082 75.4734C50.351 74.5414 51.6257 74.0224 52.9518 74.0305C54.2778 74.0386 55.5467 74.5731 56.4791 75.5165C57.4116 76.4599 57.9313 77.7349 57.924 79.0609C57.9203 79.7175 57.7874 80.3669 57.5328 80.972C57.2781 81.5771 56.9068 82.126 56.4399 82.5875C55.9731 83.0489 55.4198 83.4138 54.8118 83.6614C54.2038 83.909 53.5529 84.0343 52.8963 84.0303C52.2397 84.0263 51.5903 83.8931 50.9851 83.6381C50.3798 83.3831 49.8307 83.0115 49.369 82.5444C48.9073 82.0772 48.542 81.5238 48.2941 80.9156C48.0462 80.3075 47.9205 79.6565 47.9241 78.9999Z" fill="#FAF6F1"/>
<path d="M62.9241 96.0131C62.9383 94.6857 63.4757 93.4178 64.4196 92.4849C65.3634 91.552 66.6374 91.0294 67.9649 91.0306C69.2898 91.0456 70.5552 91.5845 71.4845 92.5296C72.4137 93.4747 72.9313 94.749 72.9239 96.074C72.9166 97.3966 72.3841 98.6618 71.4437 99.5913C70.5034 100.521 69.232 101.038 67.9095 101.03C66.5845 101.022 65.3162 100.49 64.382 99.5498C63.4479 98.6096 62.9237 97.3381 62.9241 96.0131Z" fill="#FAF6F1"/>
<path d="M44.0277 110.744C44.042 109.416 44.5803 108.148 45.5249 107.216C46.4694 106.285 47.7435 105.767 49.0685 105.775C49.7233 105.779 50.3711 105.912 50.9747 106.167C51.5783 106.422 52.126 106.794 52.5865 107.261C53.047 107.728 53.4113 108.282 53.6585 108.89C53.9058 109.498 54.0312 110.149 54.0275 110.805C54.0202 112.131 53.4877 113.4 52.5473 114.332C51.6069 115.264 50.3356 115.783 49.013 115.775C47.688 115.767 46.4198 115.233 45.4856 114.291C44.5515 113.348 44.0273 112.073 44.0277 110.744Z" fill="#FAF6F1"/>
<path d="M65.6737 121.842C65.6879 120.514 66.2254 119.247 67.1692 118.314C68.113 117.381 69.3871 116.858 70.7145 116.859C72.0395 116.874 73.3049 117.413 74.2341 118.358C75.1634 119.303 75.6809 120.578 75.6735 121.903C75.6662 123.225 75.1338 124.491 74.1934 125.42C73.253 126.35 71.9817 126.867 70.6591 126.859C69.3341 126.851 68.0659 126.319 67.1317 125.379C66.1975 124.438 65.6733 123.167 65.6737 121.842Z" fill="#FAF6F1"/>
<path d="M53.3047 138.442C53.312 137.119 53.8444 135.854 54.7848 134.925C55.7252 133.995 56.9965 133.478 58.3191 133.486C58.9762 133.486 59.6268 133.617 60.2334 133.869C60.8401 134.122 61.3909 134.492 61.8542 134.959C62.3175 135.425 62.6841 135.978 62.933 136.586C63.1819 137.195 63.3081 137.846 63.3045 138.503C63.2971 139.833 62.7619 141.104 61.8165 142.039C60.8712 142.973 59.5932 143.494 58.2637 143.485C56.9387 143.47 55.6733 142.931 54.7441 141.986C53.8148 141.041 53.2973 139.767 53.3047 138.442Z" fill="#FAF6F1"/>
</svg>
