<svg width="250" height="140" viewBox="0 0 250 140" fill="none" xmlns="http://www.w3.org/2000/svg">
<g clip-path="url(#clip0_2_125)">
<path d="M6.33507 50.7477L240.961 0.140226C242.054 -0.0953647 243.176 -0.0432669 244.251 0.292957C245.325 0.62918 246.328 1.24162 247.189 2.08861C248.051 2.9356 248.751 3.99723 249.243 5.20119C249.734 6.40514 250.006 7.72315 250.039 9.06546V59.6729C249.968 62.0945 249.124 64.3884 247.683 66.0709C246.241 67.7535 244.316 68.6931 242.313 68.6916H7.72562C5.80332 68.815 3.91597 68.0341 2.45884 66.5123C1.0017 64.9906 0.0877651 62.846 -0.0919163 60.5274C-0.271598 58.2089 0.297088 55.8961 1.49503 54.0732C2.69296 52.2504 4.42731 51.0587 6.33507 50.7477Z" fill="#EE652A"/>
<g clip-path="url(#clip1_2_125)">
<path d="M172 50C170.674 50 169.402 49.4732 168.464 48.5355C167.527 47.5979 167 46.3261 167 45C167 43.6739 167.527 42.4021 168.464 41.4645C169.402 40.5268 170.674 40 172 40C172.657 40 173.307 40.1293 173.913 40.3806C174.52 40.6319 175.071 41.0002 175.536 41.4645C176 41.9288 176.368 42.48 176.619 43.0866C176.871 43.6932 177 44.3434 177 45C177 45.6566 176.871 46.3068 176.619 46.9134C176.368 47.52 176 48.0712 175.536 48.5355C175.071 48.9998 174.52 49.3681 173.913 49.6194C173.307 49.8707 172.657 50 172 50Z" fill="#FAF6F1"/>
<path d="M178.765 35C177.437 34.9931 176.166 34.4627 175.228 33.5241C174.289 32.5854 173.759 31.3143 173.752 29.9869C173.759 28.6619 174.29 27.3935 175.229 26.459C176.169 25.5245 177.44 25 178.765 25C180.087 25 181.356 25.5254 182.291 26.4606C183.226 27.3958 183.752 28.6643 183.752 29.9869C183.752 31.3119 183.227 32.5831 182.293 33.5224C181.358 34.4618 180.09 34.9931 178.765 35Z" fill="#FAF6F1"/>
<path d="M197.915 54.5121C196.586 54.5051 195.315 53.9739 194.378 53.0345C193.441 52.0951 192.915 50.824 192.915 49.4989C192.915 48.8441 193.044 48.1956 193.296 47.5906C193.547 46.9855 193.915 46.4358 194.379 45.9727C194.844 45.5096 195.395 45.1423 196.002 44.8917C196.608 44.6411 197.258 44.5121 197.915 44.5121C199.241 44.5121 200.513 45.0375 201.45 45.9727C202.388 46.9079 202.915 48.1763 202.915 49.4989C202.915 50.824 202.389 52.0951 201.452 53.0345C200.515 53.9739 199.243 54.5051 197.915 54.5121Z" fill="#FAF6F1"/>
<path d="M204.292 35C202.965 34.9931 201.694 34.4627 200.755 33.5241C199.816 32.5854 199.286 31.3143 199.279 29.9869C199.286 28.6619 199.817 27.3935 200.756 26.459C201.696 25.5245 202.967 25 204.292 25C205.615 25 206.883 25.5254 207.818 26.4606C208.753 27.3958 209.279 28.6643 209.279 29.9869C209.279 31.3119 208.754 32.5831 207.82 33.5224C206.885 34.4618 205.617 34.9931 204.292 35Z" fill="#FAF6F1"/>
<path d="M223.429 46.7014C222.106 46.7014 220.838 46.176 219.903 45.2408C218.967 44.3056 218.442 43.0372 218.442 41.7146C218.439 41.0575 218.565 40.4062 218.814 39.7981C219.063 39.19 219.43 38.6372 219.893 38.1713C220.357 37.7055 220.908 37.3358 221.514 37.0835C222.121 36.8313 222.772 36.7014 223.429 36.7014C224.758 36.7014 226.034 37.2296 226.974 38.1697C227.914 39.1099 228.442 40.385 228.442 41.7146C228.435 43.0396 227.904 44.3079 226.964 45.2424C226.025 46.1769 224.754 46.7014 223.429 46.7014Z" fill="#FAF6F1"/>
</g>
<path d="M161.31 99.0187V110.608C161.31 116.028 167.838 120.421 175.216 119.206C180.547 118.364 184.255 114.533 184.255 110.28V105.327C184.309 104.42 184.553 103.544 184.966 102.783C185.378 102.022 185.945 101.402 186.612 100.981C188.338 99.7364 190.319 99.1048 192.328 99.1589C196.732 99.1589 200.363 101.963 200.363 105.327V121.402C200.363 127.57 207.316 132.477 215.467 131.869C222.574 131.308 227.75 126.402 227.75 120.888V99.0187H250.039V113.551C250.039 128.037 234.587 139.813 215.776 139.813H34.2243C15.2966 139.813 -0.0386658 128.037 -0.0386658 113.551V99.0187H20.4341L34.0312 114.065L124.575 101.589L138.134 99.5327L161.31 99.0187Z" fill="#EE652A"/>
<path d="M4.94438 80H250L35.0742 111.075L4.94438 80Z" fill="#F8A700"/>
</g>
<defs>
<clipPath id="clip0_2_125">
<rect width="250" height="140" fill="white"/>
</clipPath>
<clipPath id="clip1_2_125">
<rect width="66.4894" height="30.5747" fill="white" transform="translate(162.234 24.9425)"/>
</clipPath>
</defs>
</svg>
