<svg width="61" height="55" viewBox="0 0 61 55" fill="none" xmlns="http://www.w3.org/2000/svg">
<path d="M60.9983 0.646601C60.9199 0.455458 60.7859 0.291884 60.6136 0.176726C60.4413 0.0615683 60.2384 4.5439e-05 60.0308 0H7.54996C7.27107 0 7.00361 0.11017 6.80641 0.306278C6.6092 0.502385 6.49841 0.768365 6.49841 1.0457V2.96385C6.37222 2.97318 6.25084 3.01591 6.14686 3.0876C1.20957 6.49077 1.88468 11.1655 2.37623 14.5841C2.64067 16.4218 2.86777 18.009 2.32644 19.1165C2.15844 19.4661 2.00289 19.7755 1.84111 20.0849C0.154905 23.4633 -0.862422 25.5021 0.982449 31.5103C2.26422 35.6807 2.20823 35.9313 1.85045 37.5617C1.70734 38.199 1.53934 38.991 1.3589 40.1729C0.559349 45.6365 6.05974 47.9568 6.29307 48.0528C6.35855 48.0786 6.42799 48.0933 6.49841 48.0961V53.2225C6.49887 53.4288 6.56091 53.6304 6.67666 53.8017C6.79241 53.973 6.95665 54.1063 7.14862 54.1846C7.33986 54.2647 7.55081 54.2859 7.75429 54.2457C7.95778 54.2054 8.1445 54.1055 8.2904 53.9588L12.6459 49.6089C21.3974 51.6508 25.1587 46.3945 27.9182 42.5272C29.4302 40.408 30.7368 38.5765 32.4697 38.1155C33.011 37.9711 33.5296 37.8371 34.0253 37.7133C39.3514 36.3428 42.5652 35.5167 46.3638 27.4419C48.9989 21.8329 49.3131 21.6534 51.3415 20.4654C52.138 20.0014 53.1335 19.4228 54.5055 18.4576C60.3046 14.3892 57.3708 6.80324 56.6833 5.22541C59.3837 2.45028 61.0295 0.714664 60.9983 0.646601ZM3.02022 40.5936C3.17889 39.5108 3.33132 38.7683 3.47443 38.1743C3.96909 35.9375 3.94731 35.2476 2.5411 30.7121C1.01667 25.762 1.62645 24.5245 3.24733 21.2853L3.74509 20.286C4.63797 18.4514 4.32687 16.2826 4.0251 14.185C3.56466 10.9644 3.12599 7.91701 6.48595 5.33988V45.8345C5.52463 45.3426 2.57845 43.5977 3.02022 40.5936ZM14.665 7.8737H43.8189C44.0875 7.88824 44.3403 8.00459 44.5253 8.19881C44.7102 8.39303 44.8133 8.65036 44.8133 8.91785C44.8133 9.18534 44.7102 9.44266 44.5253 9.63689C44.3403 9.83111 44.0875 9.94746 43.8189 9.962H14.665C14.5223 9.96973 14.3795 9.94846 14.2454 9.89947C14.1112 9.85049 13.9885 9.77482 13.8848 9.67711C13.781 9.57939 13.6984 9.46167 13.6419 9.33112C13.5854 9.20058 13.5563 9.05996 13.5563 8.91785C13.5563 8.77574 13.5854 8.63512 13.6419 8.50458C13.6984 8.37403 13.781 8.25631 13.8848 8.15859C13.9885 8.06087 14.1112 7.98521 14.2454 7.93623C14.3795 7.88725 14.5223 7.86597 14.665 7.8737V7.8737ZM14.665 19.0639H33.7888C33.9315 19.0562 34.0743 19.0775 34.2084 19.1265C34.3426 19.1755 34.4653 19.2511 34.5691 19.3488C34.6728 19.4465 34.7555 19.5643 34.8119 19.6948C34.8684 19.8254 34.8975 19.966 34.8975 20.1081C34.8975 20.2502 34.8684 20.3908 34.8119 20.5214C34.7555 20.6519 34.6728 20.7696 34.5691 20.8674C34.4653 20.9651 34.3426 21.0407 34.2084 21.0897C34.0743 21.1387 33.9315 21.16 33.7888 21.1522H14.665C14.5223 21.16 14.3795 21.1387 14.2454 21.0897C14.1112 21.0407 13.9885 20.9651 13.8848 20.8674C13.781 20.7696 13.6984 20.6519 13.6419 20.5214C13.5854 20.3908 13.5563 20.2502 13.5563 20.1081C13.5563 19.966 13.5854 19.8254 13.6419 19.6948C13.6984 19.5643 13.781 19.4465 13.8848 19.3488C13.9885 19.2511 14.1112 19.1755 14.2454 19.1265C14.3795 19.0775 14.5223 19.0562 14.665 19.0639ZM14.665 30.2542H22.8254C22.9681 30.2464 23.1108 30.2677 23.245 30.3167C23.3791 30.3657 23.5018 30.4414 23.6056 30.5391C23.7094 30.6368 23.792 30.7545 23.8485 30.8851C23.905 31.0156 23.9341 31.1562 23.9341 31.2983C23.9341 31.4404 23.905 31.5811 23.8485 31.7116C23.792 31.8421 23.7094 31.9599 23.6056 32.0576C23.5018 32.1553 23.3791 32.231 23.245 32.28C23.1108 32.3289 22.9681 32.3502 22.8254 32.3425H14.665C14.5223 32.3502 14.3795 32.3289 14.2454 32.28C14.1112 32.231 13.9885 32.1553 13.8848 32.0576C13.781 31.9599 13.6984 31.8421 13.6419 31.7116C13.5854 31.5811 13.5563 31.4404 13.5563 31.2983C13.5563 31.1562 13.5854 31.0156 13.6419 30.8851C13.6984 30.7545 13.781 30.6368 13.8848 30.5391C13.9885 30.4414 14.1112 30.3657 14.2454 30.3167C14.3795 30.2677 14.5223 30.2464 14.665 30.2542ZM52.95 16.1341C51.7055 17.0189 50.7722 17.5573 50.0193 17.9904C47.2194 19.6208 46.5629 20.3262 43.6976 26.4241C40.5616 33.0912 38.6421 33.5831 33.515 34.9011L31.9595 35.3094C29.0942 36.0767 27.2929 38.5796 25.5787 40.9989C23.0898 44.4609 20.7534 47.7496 15.1939 47.072C25.3702 36.8625 44.3043 17.8543 54.35 7.61072C55.0531 9.69594 56.0331 13.9747 52.95 16.1341Z" fill="#F8A700"/>
</svg>
