<svg width="301" height="181" viewBox="0 0 301 181" fill="none" xmlns="http://www.w3.org/2000/svg">
<path d="M299.939 143.122C299.226 153.425 294.958 163.039 288.012 169.997C281.065 176.954 271.964 180.727 262.573 180.544L37.5372 180.073C28.3266 180.16 19.4178 176.472 12.5454 169.729C5.67312 162.985 1.32933 153.668 0.359765 143.593L0.0910925 140.451C0.0619246 140.024 0.114642 139.594 0.245844 139.19C0.377045 138.786 0.583817 138.417 0.852778 138.107C1.42571 137.466 2.20542 137.101 3.02205 137.09L297.165 137.705C297.562 137.704 297.955 137.791 298.321 137.961C298.687 138.131 299.019 138.38 299.295 138.694C299.819 139.338 300.1 140.177 300.082 141.041L299.939 143.122Z" fill="#F8A700"/>
<path d="M285.592 78.9523C284.877 78.6626 284.119 78.5199 283.357 78.5313L15.3918 77.9703C11.7077 79.2813 8.39993 81.6313 5.79805 84.7862C3.19618 87.9412 1.39112 91.7908 0.562693 95.9515L1.83099 98.0732C5.2592 103.643 6.89727 109.89 10.1995 109.897C13.5018 109.904 15.3379 103.664 18.6519 98.1084C21.9658 92.5528 26.2461 85.4477 34.949 85.4659C43.6518 85.4841 47.8681 92.5313 51.2273 98.1766C54.5866 103.822 56.3625 109.994 59.6648 110.001C62.967 110.007 64.7688 103.768 68.1171 98.212C71.4654 92.6564 75.6769 85.5512 84.4142 85.5694C93.1514 85.5877 97.2989 92.6348 100.693 98.2802C104.086 103.926 105.759 110.097 109.096 110.104C112.432 110.111 114.2 103.871 117.513 98.3154C120.827 92.7598 125.142 85.6547 133.845 85.6729C142.548 85.6911 146.764 92.7384 150.089 98.3836C153.414 104.029 155.224 110.201 158.492 110.207C161.76 110.214 163.63 103.975 166.979 98.419C170.327 92.8634 174.539 85.7581 183.276 85.7764C192.013 85.7947 196.161 92.8418 199.554 98.4872C202.948 104.133 204.655 110.304 207.957 110.311C211.259 110.318 213.061 104.078 216.409 98.5224C219.758 92.9669 224.004 85.8617 232.707 85.8799C241.409 85.8981 245.626 92.9453 248.985 98.5906C252.344 104.236 254.086 110.294 257.526 110.301C260.966 110.308 262.664 104.068 265.978 98.5127C269.292 92.957 273.607 85.852 282.31 85.8702C291.012 85.8884 295.229 92.9357 298.588 98.581C299.068 99.3388 299.514 100.097 299.96 100.741C299.798 95.9505 298.346 91.3216 295.788 87.4421C293.23 83.5626 289.681 80.6075 285.592 78.9523Z" fill="#F8A700"/>
<path d="M16.4564 128.074L18.2103 128.304L281.566 128.856C282.146 128.859 282.723 128.783 283.286 128.632C287.056 127.542 290.5 125.383 293.275 122.372C294.338 121.14 294.96 119.526 295.027 117.83C295.094 116.133 294.601 114.467 293.639 113.139C292.472 111.51 291.444 109.767 290.484 108.176C287.056 102.606 285.341 100.18 282.039 100.173C278.737 100.167 276.943 102.585 273.594 108.14C270.246 113.696 266 120.801 257.263 120.783C248.526 120.764 244.378 113.717 240.985 108.072C237.591 102.427 235.91 100.077 232.574 100.07C229.237 100.063 227.478 102.481 224.164 108.037C220.85 113.592 216.535 120.697 207.832 120.679C199.129 120.661 194.913 113.614 191.554 107.968C188.195 102.323 186.445 99.9733 183.143 99.9664C179.841 99.9595 178.047 102.378 174.698 107.933C171.35 113.489 167.104 120.594 158.367 120.576C149.63 120.557 145.482 113.51 142.123 107.865C138.764 102.22 137.152 99.8322 133.712 99.825C130.272 99.8178 128.616 102.236 125.268 107.792C121.919 113.347 117.674 120.453 108.971 120.434C100.268 120.416 96.0515 113.369 92.6923 107.724C89.333 102.078 87.5493 99.7284 84.2814 99.7216C81.0135 99.7147 79.1853 102.133 75.837 107.688C72.4887 113.244 68.2428 120.349 59.54 120.331C50.8371 120.313 46.6207 113.265 43.2615 107.62C39.9022 101.975 38.1528 99.625 34.8162 99.618C31.4795 99.611 29.7545 102.029 26.4062 107.585C23.0579 113.14 18.812 120.246 10.0747 120.227C8.08556 120.257 6.11077 119.854 4.26383 119.042C7.25272 123.517 11.5627 126.71 16.4564 128.074Z" fill="#F8A700"/>
<path d="M72.4587 24.6153C3.4133 1.97747 -3.07638 43.9217 2.30946 67.7236L297.685 67.7403C308.02 9.53933 256.145 14.7458 228.915 24.6241C156.915 -18.8514 94.6108 6.50342 72.4587 24.6153Z" fill="#F8A700"/>
<ellipse rx="5.13864" ry="5" transform="matrix(1 5.64222e-05 5.79851e-05 1 50.3682 39.4939)" fill="#FAF6F1"/>
<ellipse rx="5.13864" ry="5" transform="matrix(1 5.64222e-05 5.79851e-05 1 34.677 50.2711)" fill="#FAF6F1"/>
<ellipse rx="5.13864" ry="5" transform="matrix(1 5.64222e-05 5.79851e-05 1 66.9838 50.2729)" fill="#FAF6F1"/>
<ellipse rx="5.13864" ry="5" transform="matrix(1 5.64222e-05 5.79851e-05 1 85.4441 39.4959)" fill="#FAF6F1"/>
</svg>
