<svg width="340" height="341" viewBox="0 0 340 341" fill="none" xmlns="http://www.w3.org/2000/svg">
<g clip-path="url(#clip0_2_44)">
<path d="M235.945 62.4214L61.7437 236.622C56.7137 241.652 54.0975 248.684 54.4705 256.171C54.8435 263.657 58.1753 270.985 63.7327 276.542C69.2902 282.1 76.6182 285.432 84.1046 285.805C91.5911 286.178 98.6227 283.561 103.653 278.531L277.854 104.33C282.884 99.3004 285.5 92.2688 285.127 84.7824C284.754 77.2959 281.422 69.9679 275.865 64.4104C270.307 58.8529 262.979 55.5213 255.493 55.1483C248.006 54.7753 240.975 57.3914 235.945 62.4214ZM255.684 81.4865C253.577 83.5938 253.72 85.8722 254.67 91.3174C255.62 96.7627 257.06 104.946 250.597 111.408C244.135 117.871 236.278 116.476 230.506 115.481C224.734 114.485 222.783 114.388 220.675 116.495C218.568 118.603 218.711 120.881 219.661 126.326C220.611 131.772 222.051 139.955 215.589 146.417C209.126 152.88 201.27 151.485 195.526 150.462C189.782 149.438 187.802 149.369 185.695 151.476C183.587 153.583 183.731 155.862 184.68 161.307C185.63 166.752 187.07 174.936 180.608 181.398C174.145 187.86 166.317 186.438 160.545 185.442C154.773 184.447 152.821 184.35 150.714 186.457C148.607 188.564 148.75 190.842 149.7 196.288C150.649 201.733 152.089 209.916 145.655 216.351C139.221 222.785 131.336 221.418 125.564 220.423C119.792 219.427 117.841 219.33 115.733 221.437C113.626 223.545 113.797 225.795 114.747 231.24C115.697 236.686 117.137 244.869 110.675 251.331C104.212 257.794 96.3555 256.399 90.6116 255.376C84.8677 254.352 82.888 254.283 80.7807 256.39L71.4676 247.077C77.9018 240.643 85.7865 242.009 91.5585 243.005C97.3306 244 99.2541 244.125 101.361 242.018C103.469 239.911 103.326 237.633 102.376 232.187C101.426 226.742 99.986 218.559 106.42 212.124C112.854 205.69 120.739 207.056 126.511 208.052C132.283 209.047 134.235 209.145 136.342 207.037C138.449 204.93 138.278 202.68 137.329 197.235C136.379 191.789 134.939 183.606 141.401 177.144C147.863 170.681 155.72 172.076 161.492 173.071C167.264 174.067 169.187 174.192 171.295 172.085C173.402 169.978 173.259 167.699 172.309 162.254C171.36 156.809 169.919 148.625 176.382 142.163C182.844 135.701 190.701 137.095 196.445 138.119C202.188 139.142 204.168 139.211 206.275 137.104C208.383 134.997 208.24 132.718 207.29 127.273C206.34 121.828 204.9 113.644 211.362 107.182C217.825 100.72 225.681 102.114 231.453 103.11C237.225 104.105 239.177 104.203 241.284 102.095C243.391 99.9881 243.248 97.7097 242.299 92.2644C241.349 86.8192 239.909 78.6357 246.371 72.1734L255.684 81.4865ZM45.4063 234.334C36.5362 225.463 31.2161 213.769 30.6152 201.82C30.0143 189.871 34.1817 178.644 42.2016 170.608L170.043 42.7669C178.092 34.7993 189.304 30.6753 201.226 31.2969C213.147 31.9186 224.807 37.2352 233.656 46.084L45.4063 234.334ZM294.191 106.619C303.012 115.485 308.297 127.148 308.89 139.061C309.484 150.974 305.338 162.167 297.359 170.195L169.574 297.98C161.546 305.96 150.352 310.105 138.439 309.512C126.527 308.918 114.863 303.634 105.998 294.813L294.247 106.563L294.191 106.619Z" fill="#F8A700"/>
<circle cx="53" cy="182" r="5" fill="#FAF6F1"/>
<circle cx="53" cy="182" r="5" fill="#FAF6F1"/>
<circle cx="53" cy="182" r="5" fill="#FAF6F1"/>
<circle cx="53" cy="182" r="5" fill="#FAF6F1"/>
<circle cx="74" cy="170" r="5" fill="#FAF6F1"/>
<circle cx="74" cy="170" r="5" fill="#FAF6F1"/>
<circle cx="74" cy="170" r="5" fill="#FAF6F1"/>
<circle cx="74" cy="170" r="5" fill="#FAF6F1"/>
<circle cx="69" cy="187" r="5" fill="#FAF6F1"/>
<circle cx="69" cy="187" r="5" fill="#FAF6F1"/>
<circle cx="69" cy="187" r="5" fill="#FAF6F1"/>
<circle cx="69" cy="187" r="5" fill="#FAF6F1"/>
<circle cx="53" cy="204" r="5" fill="#FAF6F1"/>
<circle cx="53" cy="204" r="5" fill="#FAF6F1"/>
<circle cx="53" cy="204" r="5" fill="#FAF6F1"/>
<circle cx="53" cy="204" r="5" fill="#FAF6F1"/>
</g>
<defs>
<clipPath id="clip0_2_44">
<rect width="300" height="180" fill="white" transform="translate(0 212.81) rotate(-45)"/>
</clipPath>
</defs>
</svg>
