<svg width="300" height="180" viewBox="0 0 300 180" fill="none" xmlns="http://www.w3.org/2000/svg">
<path d="M59.0177 1.40749L273.557 80.0616C278.803 81.9849 277.423 89.7561 271.836 89.7561H8.94308C5.0325 89.7561 2.63559 85.469 4.68359 82.1376L53.0371 3.48338C54.283 1.45682 56.7842 0.588641 59.0177 1.40749Z" fill="#F8A700"/>
<path d="M260.394 133.384H22.5236C18.1107 133.374 13.8817 131.766 10.7613 128.913C7.64089 126.06 5.88289 122.193 5.8717 118.158C5.88292 114.126 7.64226 110.263 10.7639 107.416C13.8855 104.569 18.1146 102.97 22.5236 102.97H164.636L210.015 125.093L238.743 102.97H260.394C264.803 102.97 269.032 104.569 272.154 107.416C275.276 110.263 277.035 114.126 277.046 118.158C277.052 120.162 276.626 122.148 275.792 124.002C274.958 125.856 273.733 127.542 272.186 128.963C270.64 130.384 268.803 131.513 266.78 132.285C264.756 133.056 262.587 133.456 260.394 133.461V133.384Z" fill="#F8A700"/>
<path d="M36.1865 179.923H248.041V180C254.784 180 261.25 177.551 266.018 173.191C270.786 168.832 273.464 162.919 273.464 156.754V146.341L10.7639 145.854V156.676C10.7639 162.842 13.4423 168.754 18.21 173.114C22.9776 177.473 29.444 179.923 36.1865 179.923Z" fill="#F8A700"/>
<path d="M260.394 133.384H22.5236C18.1107 133.374 13.8817 131.766 10.7613 128.913C7.64089 126.06 5.88289 122.193 5.8717 118.158C5.88292 114.126 7.64226 110.263 10.7639 107.416C13.8855 104.569 18.1146 102.97 22.5236 102.97H164.636L210.015 125.093L238.743 102.97H260.394C264.803 102.97 269.032 104.569 272.154 107.416C275.276 110.263 277.035 114.126 277.046 118.158C277.052 120.162 276.626 122.148 275.792 124.002C274.958 125.856 273.733 127.542 272.186 128.963C270.64 130.384 268.803 131.513 266.78 132.285C264.756 133.056 262.587 133.456 260.394 133.461V133.384Z" fill="#EE652A"/>
<ellipse rx="5.125" ry="5" transform="matrix(-1 0 0 1 66.875 29.3902)" fill="#FAF6F1"/>
<ellipse rx="5.125" ry="5" transform="matrix(-1 0 0 1 47.875 45)" fill="#FAF6F1"/>
<ellipse rx="5.125" ry="5" transform="matrix(-1 0 0 1 71.875 54.7561)" fill="#FAF6F1"/>
<ellipse rx="5.125" ry="5" transform="matrix(-1 0 0 1 90.875 39.1463)" fill="#FAF6F1"/>
<ellipse rx="5.125" ry="5" transform="matrix(-1 0 0 1 105.875 54.7561)" fill="#FAF6F1"/>
</svg>
