<svg width="62" height="28" viewBox="0 0 62 28" fill="none" xmlns="http://www.w3.org/2000/svg">
<path d="M13.976 18.4027C12.2519 18.3998 10.5784 17.8182 9.22286 16.7507L8.76975 16.4029C7.79636 15.6327 6.59222 15.2138 5.3519 15.2138C4.11159 15.2138 2.90756 15.6327 1.93417 16.4029C1.70604 16.5508 1.43095 16.608 1.16294 16.5632C0.894934 16.5183 0.653336 16.3748 0.485517 16.1606C0.317697 15.9465 0.235709 15.6773 0.255785 15.4058C0.27586 15.1343 0.396549 14.88 0.594027 14.693C1.95172 13.6268 3.62689 13.0474 5.3519 13.0474C7.07692 13.0474 8.7522 13.6268 10.1099 14.693L10.563 15.0408C11.5349 15.8103 12.7374 16.2288 13.976 16.2288C15.2147 16.2288 16.4171 15.8103 17.3889 15.0408L17.7457 14.7607C19.1033 13.6944 20.7786 13.115 22.5036 13.115C24.2287 13.115 25.9038 13.6944 27.2615 14.7607C28.2349 15.5309 29.4391 15.9498 30.6794 15.9498C31.9197 15.9498 33.1238 15.5309 34.0972 14.7607L34.3671 14.5481C35.724 13.4843 37.3973 12.9062 39.1203 12.9062C40.8432 12.9063 42.5165 13.4843 43.8734 14.5481L44.2301 14.8283C45.2035 15.5985 46.4076 16.0175 47.6479 16.0175C48.8882 16.0175 50.0923 15.5985 51.0657 14.8283L51.2489 14.693C52.6057 13.6292 54.2791 13.0512 56.002 13.0512C57.7249 13.0512 59.3982 13.6292 60.7551 14.693C60.8822 14.7755 60.9909 14.8836 61.074 15.0105C61.1571 15.1373 61.213 15.2801 61.238 15.4298C61.2629 15.5795 61.2564 15.7328 61.2189 15.8798C61.1814 16.0268 61.1136 16.1644 61.0201 16.2838C60.9266 16.4031 60.8092 16.5016 60.6755 16.573C60.5418 16.6444 60.3949 16.687 60.2438 16.6982C60.0928 16.7094 59.9411 16.689 59.7984 16.6381C59.6557 16.5873 59.5251 16.5072 59.415 16.4029C58.4432 15.6335 57.2407 15.2149 56.002 15.2149C54.7634 15.2149 53.5609 15.6335 52.589 16.4029L52.4059 16.5382C51.0482 17.6044 49.3729 18.1839 47.6479 18.1839C45.9229 18.1839 44.2477 17.6044 42.89 16.5382L42.5333 16.258C41.5593 15.4934 40.3576 15.0779 39.1203 15.0779C37.8829 15.0779 36.6812 15.4934 35.7072 16.258L35.4374 16.4706C34.0797 17.5368 32.4044 18.1162 30.6794 18.1162C28.9544 18.1162 27.2791 17.5368 25.9214 16.4706C24.9459 15.7052 23.7426 15.2893 22.5036 15.2893C21.2646 15.2893 20.0613 15.7052 19.0858 16.4706L18.7291 16.7507C17.3735 17.8182 15.7001 18.3998 13.976 18.4027V18.4027Z" fill="#F8A700"/>
<path d="M53.4375 2.94651C53.9099 3.00447 54.1895 3.96085 54.0642 5.08146C53.9389 6.20207 53.4375 7.07151 52.9554 7.01355C52.4734 6.95559 52.1938 5.99921 52.3287 4.8786C52.4637 3.75799 52.9747 2.84991 53.4375 2.94651Z" fill="black"/>
<path d="M55.5874 20.3535H4.50831C2.59675 20.3535 1.04712 21.9062 1.04712 23.8216C1.04712 25.737 2.59675 27.2897 4.50831 27.2897H55.5874C57.499 27.2897 59.0486 25.737 59.0486 23.8216C59.0486 21.9062 57.499 20.3535 55.5874 20.3535Z" fill="#F8A700"/>
<path d="M55.5874 0H4.48899C3.57103 0 2.69072 0.365384 2.04162 1.01578C1.39252 1.66617 1.02783 2.5483 1.02783 3.46809C1.02783 4.38789 1.39252 5.27002 2.04162 5.92041C2.69072 6.57081 3.57103 6.93619 4.48899 6.93619H6.41723C6.10457 7.46586 5.93819 8.06935 5.93517 8.68473V8.68473C5.93517 9.60452 6.29986 10.4866 6.94896 11.137C7.59806 11.7874 8.47849 12.1528 9.39645 12.1528H24.5331C25.4511 12.1528 26.3315 11.7874 26.9806 11.137C27.6297 10.4866 27.9943 9.60452 27.9943 8.68473V8.68473C27.9926 8.06785 27.8226 7.46318 27.5025 6.93619H31.5712C31.2586 7.46586 31.0922 8.06935 31.0892 8.68473V8.68473C31.0892 9.60452 31.4537 10.4866 32.1028 11.137C32.7519 11.7874 33.6324 12.1528 34.5503 12.1528H49.687C50.6049 12.1528 51.4854 11.7874 52.1345 11.137C52.7836 10.4866 53.1483 9.60452 53.1483 8.68473V8.68473C53.1466 8.06785 52.9766 7.46318 52.6565 6.93619H55.5489C56.4669 6.93619 57.3472 6.57081 57.9963 5.92041C58.6454 5.27002 59.0101 4.38789 59.0101 3.46809C59.0101 2.5483 58.6454 1.66617 57.9963 1.01578C57.3472 0.365384 56.4669 0 55.5489 0H55.5874Z" fill="#F8A700"/>
</svg>
