<svg width="200" height="180" viewBox="0 0 200 180" fill="none" xmlns="http://www.w3.org/2000/svg">
<path d="M10.1924 152.05L3.9182 144.965C0.650485 141.284 -0.684949 136.07 0.336429 131.025C1.31369 126.205 4.23781 122.327 8.35807 120.397L32.2875 109.168C48.9457 101.345 62.7343 88.0029 72.1699 70.5647L79.3473 57.2891C89.3422 38.7997 104.006 24.6171 121.766 16.2953L153.988 1.18099C159.143 -1.21396 165.247 0.0988324 169.166 4.52729L181.006 17.8907L144.597 34.9633C125.24 44.0445 109.266 59.4788 98.3922 79.6136L90.777 93.6879C81.0392 111.696 66.8059 125.477 49.6092 133.557L10.1924 152.05ZM196.18 35.0378L188.746 26.6457L149.28 45.1668C132.094 53.2319 117.861 67.0032 108.113 85.0004L100.504 99.1022C89.6201 119.237 73.6359 134.682 54.2645 143.752L17.9604 160.779L30.9639 175.454C33.5729 178.418 36.8594 180 40.8198 180C42.6222 180 44.4363 179.61 46.1456 178.813L78.3676 163.699C96.1306 155.37 110.795 141.188 120.786 122.705L127.964 109.43C137.382 92.0056 151.17 78.6668 167.846 70.8266L191.775 59.5972C195.896 57.6685 198.821 53.7892 199.797 48.9691C200.488 43.6233 199.446 38.7013 196.18 35.0378Z" fill="#F8A700"/>
<g clip-path="url(#clip0_2_30)">
<path d="M25.354 138.22C24.2234 138.913 22.871 139.125 21.5942 138.808C20.3173 138.491 19.2207 137.671 18.5456 136.53C17.8705 135.389 17.6721 134.019 17.9941 132.722C18.3161 131.424 19.1322 130.306 20.2627 129.613C20.8225 129.27 21.4427 129.042 22.0878 128.941C22.7329 128.84 23.3903 128.869 24.0225 129.026C24.6547 129.183 25.2494 129.465 25.7724 129.856C26.2955 130.246 26.7368 130.738 27.0711 131.303C27.4053 131.869 27.6261 132.496 27.7208 133.149C27.8154 133.803 27.782 134.47 27.6226 135.112C27.4631 135.754 27.1807 136.359 26.7915 136.893C26.4022 137.426 25.9137 137.877 25.354 138.22Z" fill="#FAF6F1"/>
<path d="M37.3651 126.213C36.2299 126.901 34.8762 127.109 33.5981 126.792C32.32 126.474 31.2206 125.658 30.5389 124.519C29.8703 123.375 29.6774 122.005 30.0025 120.71C30.3276 119.415 31.1443 118.299 32.2739 117.606C33.4015 116.915 34.7504 116.704 36.0238 117.021C37.2973 117.337 38.391 118.154 39.0644 119.292C39.739 120.433 39.9389 121.801 39.6205 123.098C39.3021 124.395 38.4912 125.515 37.3651 126.213Z" fill="#FAF6F1"/>
</g>
<g clip-path="url(#clip1_2_30)">
<path d="M164.275 58.1717C163.165 58.8519 161.833 59.0508 160.571 58.7247C159.309 58.3987 158.221 57.5743 157.546 56.4329C156.871 55.2916 156.664 53.9267 156.971 52.6387C157.278 51.3507 158.074 50.2449 159.184 49.5647C159.733 49.2279 160.343 49.0057 160.978 48.9108C161.614 48.8159 162.263 48.8502 162.887 49.0116C163.512 49.1731 164.101 49.4586 164.62 49.8518C165.139 50.2451 165.578 50.7383 165.913 51.3035C166.247 51.8686 166.47 52.4946 166.568 53.1456C166.667 53.7966 166.64 54.4599 166.487 55.0977C166.335 55.7354 166.062 56.3352 165.682 56.8626C165.302 57.39 164.824 57.8349 164.275 58.1717Z" fill="#FAF6F1"/>
<path d="M180.286 52.1649C179.172 52.8399 177.838 53.0354 176.575 52.709C175.311 52.3826 174.221 51.5606 173.539 50.4216C172.87 49.2776 172.669 47.9135 172.979 46.6273C173.289 45.3412 174.086 44.2376 175.195 43.558C176.301 42.8796 177.63 42.6812 178.889 43.0064C180.147 43.3316 181.233 44.1538 181.906 45.2922C182.581 46.4326 182.789 47.7958 182.485 49.0836C182.182 50.3715 181.391 51.4793 180.286 52.1649Z" fill="#FAF6F1"/>
</g>
<defs>
<clipPath id="clip0_2_30">
<rect width="38.1449" height="14.6167" fill="white" transform="matrix(0.852545 -0.522653 0.509122 0.860694 9.15302 130.977)"/>
</clipPath>
<clipPath id="clip1_2_30">
<rect width="38.1449" height="14.6167" fill="white" transform="matrix(0.852545 -0.522653 0.509122 0.860694 149.5 54.8795)"/>
</clipPath>
</defs>
</svg>
