<svg id="Layer_1" data-name="Layer 1" xmlns="http://www.w3.org/2000/svg" viewBox="0 0 1128 1167.3"><defs><style>.cls-1{fill:#eda120;}</style></defs><path class="cls-1" d="M260.6,574.2h-4.9a66.3,66.3,0,0,1-61.1-71.1l31.6-441A66.9,66.9,0,0,1,249,16.7,66.3,66.3,0,0,1,297.3.7a65.2,65.2,0,0,1,24.9,6.9A66.2,66.2,0,0,1,355.5,46a68.4,68.4,0,0,1,3.2,25.8L326.8,512.6a66.4,66.4,0,0,1-66.2,61.6Z" transform="translate(-0.5 -0.5)"/><path class="cls-1" d="M501.3,745.5a66.5,66.5,0,0,1-62.4-43.4,66.1,66.1,0,0,1,19.2-73.5L719.4,405.7a66.7,66.7,0,0,1,75-11,65.3,65.3,0,0,1,21.1,16.5,67.1,67.1,0,0,1,12.9,23.4,66.6,66.6,0,0,1-22.8,72.3L544.3,729.2a66.1,66.1,0,0,1-43,16.3Z" transform="translate(-0.5 -0.5)"/><path class="cls-1" d="M1061.9,1048H1057l-439.3-31.9a66.4,66.4,0,0,1-45.4-22.8,66.3,66.3,0,0,1-16-48.2,66.9,66.9,0,0,1,22.8-45.5,67.1,67.1,0,0,1,22.5-12.8,67.9,67.9,0,0,1,25.7-3.2l439.3,31.9a66.4,66.4,0,0,1-4.7,132.7Z" transform="translate(-0.5 -0.5)"/><path class="cls-1" d="M465.9,1167.8a66.7,66.7,0,0,1-66.1-61C369.2,745.5,68.5,703.5,55.9,702A66.5,66.5,0,0,1,24.3,585.4,66,66,0,0,1,71.1,570c145.3,16.8,428.6,148.2,460.8,525.5a66.6,66.6,0,0,1-61,71.9Z" transform="translate(-0.5 -0.5)"/></svg>