<svg width="251" height="279" viewBox="0 0 251 279" fill="none" xmlns="http://www.w3.org/2000/svg">
<path d="M27.706 142.03C27.706 142.03 89.9472 115.367 221.063 139.398L187.109 197.267L48.7488 178.99L27.706 142.03Z" fill="#D1D3D4"/>
<path d="M67.2278 86.7019L43.6334 137.236C42.33 136.969 41.0818 136.656 39.858 136.312C3.75662 125.931 -3.18831 78.0416 1.14386 69.5024C1.96379 67.8583 3.21204 67.6671 4.75399 69.4642C14.5564 80.9475 67.2278 86.7019 67.2278 86.7019Z" fill="#F6DD38"/>
<path d="M208.941 156.175C208.934 169.296 206.144 182.254 200.77 194.122C195.396 205.989 187.571 216.474 177.854 224.827C168.137 233.179 156.769 239.193 144.562 242.439C132.354 245.684 119.609 246.081 107.237 243.6C94.8652 241.12 83.1722 235.824 72.9938 228.091C62.8155 220.358 54.4032 210.379 48.3581 198.866C42.3131 187.354 38.7847 174.593 38.025 161.496C37.2654 148.398 39.2933 135.288 43.9638 123.101C45.1162 120.099 46.4277 117.165 47.8921 114.314C53.1489 104.044 60.2924 94.9499 68.9166 87.549C70.6849 86.0196 72.49 84.5666 74.3685 83.2156C90.318 71.5898 109.6 65.9817 129.026 67.3189C148.451 68.6561 166.857 76.8585 181.198 90.5696C185.285 94.4577 188.991 98.7591 192.261 103.41C194.741 106.878 196.966 110.536 198.918 114.352C201.41 119.201 203.458 124.283 205.037 129.531C207.624 138.156 208.941 147.139 208.941 156.175Z" fill="#F6DD38"/>
<path d="M82.99 150.408C82.7014 150.747 82.384 151.059 82.0416 151.339C82.476 150.893 82.7881 150.58 82.99 150.408Z" fill="#DFC010"/>
<path d="M208.941 156.175C208.934 169.296 206.144 182.254 200.77 194.122C195.396 205.99 187.571 216.474 177.854 224.827C168.137 233.179 156.769 239.193 144.562 242.439C132.354 245.684 119.609 246.081 107.237 243.601C94.8652 241.12 83.1722 235.824 72.9938 228.091C62.8155 220.358 54.4032 210.379 48.3581 198.866C42.3131 187.354 38.7847 174.593 38.025 161.496C37.2654 148.398 39.2933 135.288 43.9638 123.102C44.0617 123.739 46.2155 136.834 60.3073 133.986L49.9052 142.735C49.9052 142.735 58.7164 145.253 67.136 140.237C67.136 140.237 55.5101 154.607 54.0661 156.08C55.761 155.729 72.1963 160.279 81.9926 151.396C78.6273 154.996 69.8711 166.613 83.1675 179.065C83.1675 179.065 77.1587 168.627 83.1675 161.949C83.1675 161.949 83.9629 184.89 94.3956 185.744C94.3956 185.744 90.7916 177.402 92.3886 174.05C92.3886 174.05 116.864 191.594 155.713 173.642C155.713 173.642 158.931 177.402 158.112 183.654C162.551 179.092 165.258 173.013 165.736 166.537C165.736 166.537 170.141 169.462 169.346 180.321C169.346 180.321 189.275 174.012 180.109 154.416C180.109 154.416 188.18 151.51 193.797 158.189C193.797 158.189 204.199 146.495 193.797 139.409C193.797 139.409 203.41 140.626 204.278 148.859L205.043 129.493C207.632 138.13 208.946 147.127 208.941 156.175Z" fill="#EDCB20"/>
<path d="M61.3292 94.8711C61.3292 94.8711 87.8301 13.7931 123.13 10.6132C158.43 7.43333 181.571 23.1289 183.909 93.176L61.3292 94.8711Z" fill="#F6DD38"/>
<path d="M121.441 67.4192C121.441 67.4192 128.325 61.5819 131.458 60.7408C132.963 60.3393 139.467 47.6069 148.78 62.5187C150.677 66.4952 150.481 73.0207 148.878 75.0408C148.878 75.0408 151.748 82.3628 149.043 83.8922C146.339 85.4216 129.383 89.9398 122.432 81.3113C122.432 81.3113 114.778 77.2329 121.441 67.4192Z" fill="#EFC1A9"/>
<path d="M124.935 65.386C124.935 65.386 132.455 63.71 133.85 61.5625C133.85 61.5625 139.528 69.7385 144.154 66.1189C148.78 62.4993 147.336 61.5625 147.336 61.5625C147.336 61.5625 152.054 73.1605 147.55 74.4924C143.047 75.8243 126.006 72.8355 124.935 65.386Z" fill="#D3A59C"/>
<path d="M119.495 75.5752C120.613 74.9675 121.793 74.495 123.014 74.1669C127.786 72.7841 137.142 71.7772 149.423 78.7296C149.423 78.7296 146.149 72.3571 138.904 71.3821C131.66 70.4071 130.032 70.5855 119.495 75.5752Z" fill="#996045"/>
<path d="M141.517 65.9087C142.876 65.9087 143.977 64.7617 143.977 63.3469C143.977 61.9321 142.876 60.7852 141.517 60.7852C140.159 60.7852 139.057 61.9321 139.057 63.3469C139.057 64.7617 140.159 65.9087 141.517 65.9087Z" fill="#FFF3EE"/>
<path d="M123.411 44.9295C123.401 47.1838 122.753 49.385 121.549 51.2582C120.345 53.1313 118.637 54.5933 116.639 55.4615C114.642 56.3297 112.443 56.5656 110.317 56.1398C108.191 55.714 106.233 54.6453 104.688 53.0672C104.688 53.0672 104.688 53.0672 104.651 53.0226C101.695 50.8177 98.1833 41.1378 98.1833 41.1378L101.959 41.4628C102.088 40.9982 102.256 40.5461 102.46 40.1119L99.1867 37.2442L103.8 37.8815C104.084 37.4904 104.394 37.1218 104.73 36.779L102.313 34.5359C105.255 33.8254 108.271 33.5 111.29 33.5672C111.293 33.5713 111.298 33.5746 111.302 33.5768C111.307 33.579 111.312 33.5802 111.317 33.5802C111.323 33.5802 111.328 33.579 111.333 33.5768C111.337 33.5746 111.341 33.5713 111.345 33.5672C115.438 33.7775 118.149 35.0202 119.911 36.6261C120.04 36.7408 120.174 36.8555 120.266 36.9511C121.537 38.3182 122.47 39.987 122.983 41.8133C123.114 42.3027 123.212 42.8009 123.277 43.3045C123.277 43.4574 123.313 43.5976 123.332 43.7315C123.349 43.8326 123.349 43.9362 123.332 44.0373C123.378 44.3324 123.405 44.6306 123.411 44.9295Z" fill="#FAEA92"/>
<path d="M119.936 36.6069C118.149 35.001 115.439 33.7584 111.369 33.5481C111.729 33.5078 112.091 33.4865 112.452 33.4844C115.239 33.4875 117.918 34.6053 119.936 36.6069Z" fill="#FAEA92"/>
<path d="M123.007 41.7939C122.494 39.9676 121.562 38.2988 120.291 36.9316C121.613 38.2573 122.554 39.9413 123.007 41.7939Z" fill="#FAEA92"/>
<path d="M149.937 50.1425C149.937 56.4704 154.067 61.5812 159.146 61.5812C160.394 61.5611 161.622 61.2542 162.744 60.6825C163.865 60.1108 164.851 59.2883 165.632 58.2739C165.632 58.2739 165.632 58.2739 165.662 58.2356C168.14 56.0243 171.084 46.3444 171.084 46.3444L167.92 46.6758C167.81 46.2137 167.669 45.7601 167.498 45.3185L170.245 42.4508L166.378 43.0881C166.142 42.7016 165.883 42.3312 165.601 41.9792L167.626 39.7361C165.175 39.0305 162.637 38.7042 160.094 38.7675H160.051C156.619 38.9778 154.342 40.2204 152.849 41.8263C152.745 41.93 152.646 42.0407 152.556 42.1577C151.46 43.5802 150.682 45.239 150.279 47.0136C150.167 47.5049 150.083 48.0029 150.028 48.5047C150.028 48.6641 150.028 48.7979 149.98 48.9317C149.965 49.0352 149.965 49.1404 149.98 49.244C149.947 49.5422 149.932 49.8423 149.937 50.1425Z" fill="#FAEA92"/>
<path d="M152.843 41.8134C154.336 40.2076 156.612 38.9649 160.045 38.7546C159.745 38.7167 159.442 38.6975 159.139 38.6973C157.937 38.7162 156.752 39.0043 155.666 39.542C154.579 40.0796 153.617 40.8543 152.843 41.8134Z" fill="#FAEA92"/>
<path d="M150.279 47.0004C150.682 45.2259 151.46 43.5671 152.556 42.1445C151.415 43.5369 150.632 45.2075 150.279 47.0004Z" fill="#FAEA92"/>
<path d="M113.064 54.6362C118.4 54.6362 122.726 50.1312 122.726 44.574C122.726 39.0167 118.4 34.5117 113.064 34.5117C107.728 34.5117 103.403 39.0167 103.403 44.574C103.403 50.1312 107.728 54.6362 113.064 54.6362Z" fill="#DDC9AC"/>
<path d="M157.451 59.1464C161.452 59.1464 164.696 55.1235 164.696 50.1611C164.696 45.1986 161.452 41.1758 157.451 41.1758C153.45 41.1758 150.206 45.1986 150.206 50.1611C150.206 55.1235 153.45 59.1464 157.451 59.1464Z" fill="#DDC9AC"/>
<path d="M113.064 52.4246C117.228 52.4246 120.603 48.9096 120.603 44.5736C120.603 40.2377 117.228 36.7227 113.064 36.7227C108.901 36.7227 105.526 40.2377 105.526 44.5736C105.526 48.9096 108.901 52.4246 113.064 52.4246Z" fill="#32150F"/>
<path d="M157.451 57.7005C160.81 57.7005 163.533 54.3253 163.533 50.1618C163.533 45.9983 160.81 42.623 157.451 42.623C154.092 42.623 151.368 45.9983 151.368 50.1618C151.368 54.3253 154.092 57.7005 157.451 57.7005Z" fill="#32150F"/>
<path d="M110.042 44.5791C111.697 44.5791 113.04 43.1811 113.04 41.4565C113.04 39.732 111.697 38.334 110.042 38.334C108.386 38.334 107.043 39.732 107.043 41.4565C107.043 43.1811 108.386 44.5791 110.042 44.5791Z" fill="white"/>
<path d="M154.042 50.5052C155.519 50.5052 156.716 49.2584 156.716 47.7203C156.716 46.1823 155.519 44.9355 154.042 44.9355C152.566 44.9355 151.368 46.1823 151.368 47.7203C151.368 49.2584 152.566 50.5052 154.042 50.5052Z" fill="white"/>
<path d="M104.584 70.0247C109.68 70.0247 113.811 67.263 113.811 63.8561C113.811 60.4493 109.68 57.6875 104.584 57.6875C99.4875 57.6875 95.3563 60.4493 95.3563 63.8561C95.3563 67.263 99.4875 70.0247 104.584 70.0247Z" fill="#FFCCC0"/>
<path d="M162.009 75.6849C166.125 75.6849 169.462 72.9231 169.462 69.5163C169.462 66.1095 166.125 63.3477 162.009 63.3477C157.893 63.3477 154.556 66.1095 154.556 69.5163C154.556 72.9231 157.893 75.6849 162.009 75.6849Z" fill="#FFCCC0"/>
<path d="M180.586 100.34L182.269 110.492C182.269 110.492 160.773 107.528 154.734 102.086C154.734 102.086 124.751 112.448 109.552 101.079L86.6308 100.34C86.6308 100.34 86.0495 94.9746 92.2051 93.8657L72.9428 95.905C72.9428 95.905 65.9551 99.9706 61.3292 94.8726C61.9411 94.127 62.7671 91.852 63.6483 89.1373C65.2392 84.2368 67.0381 77.928 68.2252 76.7363C80.3038 83.8481 125.969 105.33 178.83 89.6344L183.664 87.9711C187.69 93.2795 187.421 100.493 190.64 106.84C187.476 105.814 182.599 103.673 180.586 100.34Z" fill="#EDCB20"/>
<path d="M207.252 138.537L197.713 118.068L183.676 87.9961C183.676 87.9961 236.299 82.2608 246.144 70.7902C255.989 59.3196 253.915 129.029 207.252 138.537Z" fill="#F6DD38"/>
<path d="M43.9638 123.103L39.858 136.294C3.75662 125.913 -3.18831 78.0236 1.14386 69.4844C1.14386 69.5035 16.3003 112.123 43.9638 123.103Z" fill="#EDCB20"/>
<path d="M207.252 138.537L197.713 118.069C202.51 117.801 236.146 114.277 246.144 70.7651C255.965 59.3009 253.915 129.029 207.252 138.537Z" fill="#EDCB20"/>
<path d="M27.7059 142.195L43.9637 160.968L67.1298 140.29L89.629 160.968L110.042 140.29L129.353 160.968L152.556 140.29L171.084 157.164L193.791 139.41L208.941 157.17L221.044 139.41C221.044 139.41 235.448 267.989 136.934 277.561C38.42 287.132 21.2872 181.59 27.7059 142.195Z" fill="url(#paint0_linear_2_242)"/>
<path d="M197.223 26.0991C117.935 -32.6239 61.4883 26.0991 61.4883 26.0991L82.0417 20.88V33.4849L107.043 22.9001L126.012 30.4643L144.008 23.907L160.082 33.4658L174.822 23.907L197.223 26.0991Z" fill="url(#paint1_linear_2_242)"/>
<path d="M124.017 77.7096C124.017 77.7096 132.345 72.4395 146.657 78.7292C148.805 79.8508 144.173 84.1586 137.05 83.8273C129.928 83.4959 121.129 79.5258 124.017 77.7096Z" fill="#D3A59C"/>
<path d="M164.365 58.5039C164.365 58.5039 170.374 66.2402 171.029 71.6824C171.683 77.1245 167.529 81.4897 163.062 80.3873C158.595 79.2848 157.555 75.0088 158.748 70.8667C160.424 65.0294 164.365 58.5039 164.365 58.5039Z" fill="#7DE0FF"/>
<path d="M165.583 64.9727C166.899 66.0099 167.945 67.3751 168.623 68.9429C169.3 70.5108 169.589 72.2309 169.462 73.9452" fill="white"/>
<defs>
<linearGradient id="paint0_linear_2_242" x1="124.152" y1="139.41" x2="124.152" y2="278.172" gradientUnits="userSpaceOnUse">
<stop stop-color="#F2F2F2"/>
<stop offset="1" stop-color="#E6E7E8"/>
</linearGradient>
<linearGradient id="paint1_linear_2_242" x1="42505.9" y1="4098.55" x2="72616" y2="4098.55" gradientUnits="userSpaceOnUse">
<stop stop-color="#F2F2F2"/>
<stop offset="1" stop-color="#E6E7E8"/>
</linearGradient>
</defs>
</svg>
