<svg width="52" height="48" viewBox="0 0 52 48" fill="none" xmlns="http://www.w3.org/2000/svg">
<path d="M50.3012 25.5107C51.2654 26.475 51.8119 27.7821 51.8119 29.1429C51.8119 30.5036 51.2654 31.8107 50.3012 32.775C49.3369 33.7393 48.0297 34.2857 46.669 34.2857H5.52616C4.16223 34.2857 2.85401 33.7393 1.88973 32.775C0.925444 31.8107 0.383301 30.5036 0.383301 29.1429C0.383301 27.7821 0.925444 26.475 1.88973 25.5107C2.85401 24.5464 4.16223 24 5.52616 24H46.669C48.0297 24 49.3369 24.5464 50.3012 25.5107ZM49.594 38.2179C49.9154 38.5393 50.0976 38.9786 50.0976 39.4286V41.1429C50.0976 42.8679 49.3797 44.7107 48.094 45.9964C46.8083 47.2821 44.9654 48 43.2404 48H8.95473C7.13651 48 5.39223 47.2821 4.10651 45.9964C2.81973 44.7107 2.09759 42.8679 2.09759 41.1429V39.4286C2.09759 38.9786 2.27866 38.5393 2.60009 38.2179C2.92151 37.8964 3.35759 37.7143 3.81187 37.7143H48.3833C48.8333 37.7143 49.2726 37.8964 49.594 38.2179ZM4.06794 20.2286C3.59009 19.9929 3.17223 19.6607 2.84437 19.2429C2.51652 18.825 2.28937 18.3429 2.17794 17.8286C2.06651 17.3036 2.07616 16.7679 2.20366 16.2536C4.55973 6.96643 14.3654 0 26.0976 0C37.8297 0 47.6333 6.96643 49.9904 16.2536C50.119 16.7679 50.1297 17.3036 50.0119 17.8286C49.9047 18.3429 49.6797 18.825 49.3476 19.2429C48.9297 19.6607 48.6083 19.9929 48.1262 20.2286C47.6547 20.4536 47.1297 20.5714 46.594 20.5714H5.59794C5.06866 20.5714 4.54473 20.4536 4.06794 20.2286ZM38.6012 9.075C38.2797 9.39643 38.0976 9.83571 38.0976 10.2857C38.0976 10.6286 38.194 10.9607 38.3869 11.2393C38.5797 11.5179 38.7512 11.7429 39.1583 11.8714C39.469 11.9036 39.8119 12.0321 40.144 11.9679C40.4762 11.9036 40.7869 11.7429 41.0226 11.4964C41.269 11.2607 41.4297 10.95 41.494 10.6179C41.5583 10.2857 41.4297 9.94286 41.3976 9.63214C41.269 9.225 41.044 9.05357 40.7654 8.86071C40.4869 8.66786 40.1547 8.475 39.8119 8.475C39.3619 8.475 38.9226 8.75357 38.6012 9.075ZM24.8869 5.64536C24.5654 5.96679 24.3833 6.40286 24.3833 6.85714C24.3833 7.19571 24.4797 7.53214 24.6726 7.81071C24.8654 8.08929 25.0369 8.31429 25.444 8.44286C25.7547 8.475 26.0976 8.60357 26.4297 8.53929C26.7619 8.475 27.0726 8.31429 27.3083 8.06786C27.5547 7.83214 27.7154 7.52143 27.7797 7.19143C27.844 6.85929 27.7154 6.51429 27.6833 6.20143C27.5547 5.8875 27.3297 5.61964 27.0512 5.43214C26.7726 5.24357 26.4404 5.04643 26.0976 5.04643C25.6476 5.04643 25.2083 5.32393 24.8869 5.64536ZM11.1726 9.075C10.8512 9.39643 10.669 9.83571 10.669 10.2857C10.669 10.6286 10.7654 10.9607 10.9583 11.2393C11.1512 11.5179 11.3226 11.7429 11.7297 11.8714C12.0404 11.9036 12.3833 12.0321 12.7154 11.9679C13.0476 11.9036 13.3583 11.7429 13.594 11.4964C13.8404 11.2607 14.0012 10.95 14.0654 10.6179C14.1297 10.2857 14.0012 9.94286 13.969 9.63214C13.8404 9.225 13.6154 9.05357 13.3369 8.86071C13.0583 8.66786 12.7262 8.475 12.3833 8.475C11.9333 8.475 11.494 8.75357 11.1726 9.075Z" fill="#F8A700"/>
</svg>
