<svg width="65" height="66" viewBox="0 0 65 66" fill="none" xmlns="http://www.w3.org/2000/svg">
<path d="M13.1254 62.8451C12.9449 62.8453 12.7658 62.8117 12.5968 62.7459C4.0305 59.365 2.75082 52.2643 2.70114 51.9646C2.63774 51.5623 2.72934 51.1502 2.95608 50.8176C3.18282 50.485 3.52645 50.2587 3.9125 50.1877C4.29856 50.1168 4.69594 50.2069 5.01856 50.4385C5.34118 50.6702 5.56303 51.0247 5.63606 51.4253C5.68177 51.6733 6.75082 57.1228 13.6539 59.8465C13.9796 59.9754 14.2516 60.2188 14.4226 60.5345C14.5936 60.8502 14.6528 61.2183 14.59 61.5747C14.5272 61.9311 14.3462 62.2534 14.0787 62.4855C13.8111 62.7176 13.4738 62.8448 13.1254 62.8451Z" fill="#EE702A"/>
<path d="M2.53022 50.104C2.53022 50.104 -3.16277 42.251 2.53022 36.0203C8.22321 29.7896 35.2177 2.01707 35.2177 2.01707C35.2177 2.01707 41.64 -2.99229 49.0836 2.77756L2.53022 50.104Z" fill="#EE702A"/>
<path d="M61.666 15.8008C61.666 15.8008 67.357 23.6537 61.666 29.8824C55.975 36.111 28.9705 63.8856 28.9705 63.8856C28.9705 63.8856 22.5483 68.895 15.1027 63.1272L61.666 15.8008Z" fill="#EE702A"/>
<path d="M9.52268 49.7574C9.22986 49.7582 8.94345 49.6683 8.70003 49.499C8.37147 49.2724 8.1428 48.9195 8.06419 48.5177C7.98559 48.1159 8.06347 47.6981 8.28075 47.356C8.79417 46.5844 9.39457 45.8795 10.0691 45.2564C11.6131 43.8201 13.3101 43.0617 14.9792 43.0617C19.5177 43.0617 21.6459 41.1088 21.8764 36.7276C22.0592 33.2538 23.623 30.6788 26.399 29.2777C28.5391 28.1989 30.8639 28.0915 31.9827 28.0377H32.0761C32.547 28.015 33.8863 27.3785 34.9951 25.9484C35.7601 24.9586 36.6006 23.3384 36.2549 21.2387C36.0838 20.2991 36.1331 19.3303 36.3988 18.4147C36.6645 17.4991 37.1386 16.6637 37.781 15.9793C40.0184 13.5119 43.9707 12.6997 45.928 12.925C47.4442 13.1006 48.8252 11.127 48.8391 11.1064C49.0644 10.7685 49.4095 10.5375 49.7986 10.4643C49.9912 10.428 50.1888 10.4315 50.3801 10.4747C50.5715 10.5178 50.7527 10.5998 50.9136 10.7158C51.0745 10.8318 51.2118 10.9796 51.3177 11.1509C51.4237 11.3221 51.4962 11.5133 51.531 11.7136C51.5659 11.914 51.5625 12.1195 51.521 12.3185C51.4795 12.5175 51.4007 12.706 51.2892 12.8733C50.8578 13.489 50.3523 14.0447 49.7849 14.5265C48.4635 15.6528 47.0169 16.1612 45.5982 15.9979C44.4059 15.8615 41.4253 16.4608 39.9429 18.0955C39.6169 18.4316 39.3772 18.8474 39.246 19.3049C39.1147 19.7624 39.0961 20.2469 39.1918 20.7138C39.6091 23.2412 38.9434 25.7893 37.316 27.889C35.8754 29.7489 33.8227 31.0549 32.2112 31.1314H32.1158C28.6662 31.2926 25.1054 32.1027 24.853 36.893C24.6543 40.4826 23.3726 43.0823 21.0179 44.624C19.4402 45.6573 17.465 46.1574 14.9792 46.1574C13.0577 46.1574 11.2852 48.255 10.7646 49.065C10.6283 49.2778 10.4437 49.4522 10.227 49.573C10.0104 49.6938 9.76847 49.7571 9.52268 49.7574Z" fill="#EE702A"/>
<path d="M14.4707 55.4743C14.2018 55.4744 13.9379 55.3987 13.707 55.2552C13.4762 55.1118 13.287 54.906 13.1596 54.6597C13.0322 54.4134 12.9714 54.1358 12.9836 53.8564C12.9958 53.577 13.0805 53.3063 13.2288 53.073C13.7412 52.3 14.3417 51.5943 15.0171 50.9713C16.5611 49.5371 18.2581 48.7787 19.9272 48.7787C24.4657 48.7787 26.5939 46.8237 26.8244 42.4426C27.0072 38.9707 28.571 36.3937 31.347 35.0029C33.4871 33.9242 35.812 33.8147 36.9307 33.763H37.0241C37.495 33.7403 38.8343 33.1058 39.9431 31.6737C40.7081 30.6859 41.5487 29.0657 41.2029 26.9661C41.0311 26.0254 41.0801 25.0556 41.3458 24.1389C41.6115 23.2222 42.086 22.3857 42.729 21.7005C44.9664 19.233 48.9168 18.4208 50.876 18.6481C52.3902 18.8238 53.7692 16.8564 53.7831 16.8358C54.0102 16.5045 54.3533 16.2794 54.7385 16.209C55.1238 16.1385 55.5202 16.2284 55.8423 16.4592C56.1643 16.69 56.3862 17.0433 56.4601 17.4427C56.534 17.8422 56.4539 18.2558 56.2372 18.5944C55.807 19.2112 55.3013 19.7669 54.7329 20.2477C53.4115 21.376 51.9649 21.8844 50.5462 21.7211C49.3539 21.5827 46.3733 22.184 44.8909 23.8187C44.5638 24.1537 44.3228 24.5689 44.1902 25.026C44.0576 25.4832 44.0375 25.9677 44.1319 26.435C44.5492 28.9603 43.8835 31.5084 42.2561 33.6101C40.8154 35.47 38.7628 36.7761 37.1512 36.8525H37.0559C33.6063 37.0137 30.0454 37.8217 29.7931 42.6141C29.5944 46.2017 28.3127 48.8035 25.958 50.3431C24.3803 51.3763 22.4051 51.8785 19.9193 51.8785C17.9978 51.8785 16.2253 53.9761 15.7047 54.7841C15.5688 54.9952 15.3853 55.1684 15.1702 55.2887C14.9551 55.409 14.7149 55.4728 14.4707 55.4743Z" fill="#EE702A"/>
<path d="M59.4938 16.124C59.1448 16.1235 58.807 15.9956 58.5394 15.7625C58.2718 15.5295 58.0913 15.2062 58.0294 14.849C57.9837 14.5989 56.9126 9.14936 50.0115 6.42562C49.8183 6.36183 49.6396 6.25772 49.4865 6.11966C49.3333 5.9816 49.2088 5.81249 49.1206 5.62268C49.0324 5.43287 48.9824 5.22634 48.9736 5.01573C48.9648 4.80513 48.9974 4.59486 49.0694 4.3978C49.1414 4.20074 49.2513 4.02103 49.3923 3.86966C49.5334 3.71828 49.7027 3.59843 49.8898 3.51743C50.077 3.43642 50.278 3.39598 50.4807 3.39855C50.6834 3.40113 50.8834 3.44668 51.0686 3.53242C59.6349 6.91126 60.9146 14.012 60.9643 14.3117C60.998 14.5122 60.9934 14.7177 60.9507 14.9164C60.908 15.1151 60.8281 15.3031 60.7156 15.4697C60.603 15.6363 60.46 15.7782 60.2947 15.8872C60.1294 15.9963 59.945 16.0705 59.7522 16.1054C59.6667 16.1187 59.5803 16.1249 59.4938 16.124Z" fill="#EE702A"/>
</svg>
