<svg width="61" height="25" viewBox="0 0 61 25" fill="none" xmlns="http://www.w3.org/2000/svg">
<g clip-path="url(#clip0_781_383)">
<path d="M57.3857 17.6699H3.61426C1.61816 17.6699 0 19.2833 0 21.2735C0 23.2637 1.61816 24.8771 3.61426 24.8771H57.3857C59.3818 24.8771 61 23.2637 61 21.2735C61 19.2833 59.3818 17.6699 57.3857 17.6699Z" fill="#EE702A"/>
<path d="M55.5186 13.4785H4.79901C3.94176 13.4785 3.24683 14.1721 3.24683 15.0277C3.24683 15.8833 3.94176 16.5769 4.79901 16.5769H55.5186C56.3759 16.5769 57.0708 15.8833 57.0708 15.0277C57.0708 14.1721 56.3759 13.4785 55.5186 13.4785Z" fill="#EE702A"/>
<path d="M45.5081 1.61656L39.9143 5.58313C39.5789 5.81948 39.1633 5.9136 38.7586 5.84487C38.3539 5.77614 37.9929 5.55016 37.7547 5.21641C37.6359 5.05085 37.551 4.86355 37.5048 4.6652C37.4585 4.46686 37.4519 4.26136 37.4854 4.06048C37.5188 3.85959 37.5916 3.66726 37.6995 3.49447C37.8075 3.32168 37.9486 3.17184 38.1146 3.05351L41.2265 0.853186C39.4869 0.591243 37.7022 0.389173 35.895 0.239491L28.3966 5.58313C28.06 5.81989 27.6434 5.9142 27.2374 5.8455C26.8314 5.7768 26.4692 5.55066 26.2296 5.21641C25.9924 4.88049 25.8979 4.46457 25.9667 4.05938C26.0355 3.65419 26.2621 3.29261 26.597 3.05351L30.9011 0H29.1464C27.8017 0 26.4521 0.0598725 25.0973 0.179618L18.1012 5.14157C17.7658 5.37792 17.3503 5.47204 16.9456 5.40331C16.5408 5.33458 16.1798 5.1086 15.9416 4.77485C15.8228 4.60929 15.738 4.42199 15.6918 4.22364C15.6455 4.0253 15.6389 3.8198 15.6724 3.61892C15.7058 3.41803 15.7786 3.22569 15.8865 3.05291C15.9945 2.88012 16.1355 2.73028 16.3016 2.61195L18.7011 0.913058C8.58569 2.49968 0.00743808 5.89746 0.0374319 9.02581C0.0374319 10.4777 1.89704 11.6452 3.40423 12.3936H56.9807C58.4279 11.6827 60.34 10.5002 60.355 9.02581C60.34 6.32405 53.9439 3.39029 45.5081 1.61656Z" fill="#EE702A"/>
</g>
<defs>
<clipPath id="clip0_781_383">
<rect width="61" height="24.8771" fill="white"/>
</clipPath>
</defs>
</svg>
