<svg width="62" height="37" viewBox="0 0 62 37" fill="none" xmlns="http://www.w3.org/2000/svg">
<path d="M57.6708 29.5078H3.54562C1.6835 29.5078 0.17395 31.018 0.17395 32.8808C0.17395 34.7437 1.6835 36.2538 3.54562 36.2538H57.6708C59.5329 36.2538 61.0425 34.7437 61.0425 32.8808C61.0425 31.018 59.5329 29.5078 57.6708 29.5078Z" fill="#EE702A"/>
<path d="M5.5743 27.1873C9.19016 25.4021 13.3038 23.5982 17.1638 25.7874C18.8543 26.7269 19.9813 27.7886 21.9724 28.0141C26.1894 28.4745 30.04 25.6182 33.9564 24.5565C35.2421 24.0859 36.5978 23.835 37.9667 23.8143C42.9162 24.4344 39.4695 24.9042 41.2821 26.1256C42.3246 26.8303 42.5593 27.2813 44.0056 27.5443C48.3916 28.3524 53.05 26.6048 56.6283 24.2277C57.8774 23.4009 56.7035 21.409 55.4449 22.1982C52.8716 23.9176 48.9552 25.9565 45.7338 25.3176C43.3389 24.8666 42.7096 23.0063 40.8594 22.0103C37.8352 20.3755 33.1675 22.2358 30.303 23.3163C27.0722 24.5283 23.8226 26.8021 20.1317 25.0545C18.7604 24.4062 17.7649 23.2787 16.2528 22.809C12.1016 21.5312 8.06313 23.3445 4.39092 25.1579C3.03849 25.8249 4.22187 27.8544 5.5743 27.1873V27.1873Z" fill="#EE702A"/>
<path d="M59.7276 14.1548L54.1677 2.6922C53.6772 1.67447 52.8416 0.863818 51.8097 0.404463C50.7779 -0.0548921 49.6167 -0.133161 48.5326 0.18358L2.67213 13.3374C2.59571 13.3506 2.52038 13.3695 2.44673 13.3938L1.66725 13.6193C1.51661 13.6646 1.3775 13.7417 1.25922 13.8454C1.14094 13.9492 1.04626 14.0771 0.981665 14.2206C0.47662 14.731 0.147593 15.3893 0.0424805 16.0997H36.1072C36.2478 16.0997 36.387 16.1274 36.5169 16.1812C36.6468 16.2351 36.7648 16.3139 36.8642 16.4134C36.9636 16.5129 37.0425 16.6309 37.0963 16.7609C37.1501 16.8908 37.1779 17.0301 37.1779 17.1708C37.1779 17.3114 37.1501 17.4507 37.0963 17.5807C37.0425 17.7106 36.9636 17.8287 36.8642 17.9282C36.7648 18.0276 36.6468 18.1065 36.5169 18.1604C36.387 18.2142 36.2478 18.2419 36.1072 18.2419H0.418177C0.704192 18.7762 1.12923 19.2233 1.64833 19.5359C2.16744 19.8485 2.76135 20.0149 3.36723 20.0176H57.436C58.1171 20.0203 58.7829 19.816 59.3453 19.4318C59.9078 19.0475 60.3403 18.5015 60.5857 17.8659C60.8311 17.2303 60.8777 16.5352 60.7195 15.8725C60.5612 15.2098 60.2055 14.6108 59.6995 14.1548H59.7276Z" fill="#EE702A"/>
</svg>
