<svg width="60" height="61" viewBox="0 0 60 61" fill="none" xmlns="http://www.w3.org/2000/svg">
<path d="M46.5941 22.8676H4.43662C2.40321 22.8676 0.770752 24.5716 0.770752 26.6808V49.5603C0.770752 55.876 5.69676 61 11.7683 61H33.7635C39.8351 61 44.7611 55.876 44.7611 49.5603H46.5941C53.668 49.5603 59.4246 43.5723 59.4246 36.2139C59.4246 28.8555 53.6738 22.8676 46.5941 22.8676ZM46.5941 41.9338H44.7611V30.494H46.5941C49.6299 30.494 52.0929 33.0561 52.0929 36.2139C52.0929 39.3718 49.6299 41.9338 46.5941 41.9338ZM13.1316 11.9879C14.5521 12.7505 15.4342 14.4546 15.4342 16.1944C15.4342 17.7733 16.6657 19.0412 18.1836 19.0412C19.7015 19.0412 20.933 17.6363 20.933 16.1586C20.933 12.424 19.005 8.93253 15.9028 7.04854C14.4834 6.18818 13.6013 4.59139 13.6013 2.88138C13.6013 1.30246 12.3698 0.00476656 10.8519 0.00476656C9.33398 0.00476656 8.10248 1.30246 8.10248 2.88138C8.10248 6.61717 10.0305 10.1075 13.1316 11.9879ZM25.9621 11.9879C27.3826 12.7505 28.2647 14.4546 28.2647 16.1944C28.2647 17.7733 29.4962 19.0376 31.0141 19.0376C32.532 19.0376 33.7635 17.6363 33.7635 16.1586C33.7635 12.424 31.8355 8.93253 28.7333 7.04854C27.3139 6.18818 26.4318 4.59139 26.4318 2.88138C26.4318 1.30246 25.2003 0 23.6824 0C22.1645 0 20.933 1.30246 20.933 2.88138C20.933 6.61717 22.8576 10.1075 25.9621 11.9879Z" fill="#EE702A"/>
</svg>
