<svg width="68" height="51" viewBox="0 0 68 51" fill="none" xmlns="http://www.w3.org/2000/svg">
<path d="M58.1149 16.4042C58.1149 19.4665 55.6666 21.8571 51.6654 21.8571H50.8606V47.3571C50.8606 49.3687 49.2363 51 47.2335 51H10.9619C8.95904 51 7.33475 49.3687 7.33475 47.3571V21.8571H6.52885C2.52424 21.8571 0.0804443 19.4665 0.0804443 16.4042C0.0804443 9.10714 10.9619 0 29.0977 0C47.2335 0 58.1149 9.10714 58.1149 16.4042Z" fill="#F8A700"/>
<path d="M66.0522 16C66.0522 18.702 64.1115 20.8114 60.9401 20.8114H60.3022V45.7857C60.3022 47.5606 59.0147 49 57.4272 49H28.6772C27.0896 49 25.8022 47.5606 25.8022 45.7857L25.8022 20.8114H25.1635C21.9893 20.8114 20.0522 18.702 20.0522 16C20.0522 9.56138 28.6772 4 43.0522 4C57.4272 4 66.0522 9.56138 66.0522 16Z" stroke="#FAF6F2" stroke-width="2"/>
</svg>
