<svg width="60" height="61" viewBox="0 0 60 61" fill="none" xmlns="http://www.w3.org/2000/svg">
<path d="M56.737 2.78612C53.1792 -0.93001 47.3718 -0.926436 43.8163 2.78985L3.57225 44.6488C1.18629 47.027 0.228694 50.5656 1.07174 53.8945C1.91479 57.2234 4.40155 59.81 7.60308 60.6869C10.8035 61.5638 14.2054 60.5678 16.4917 58.086L56.7313 16.2304C60.2993 12.5274 60.3108 6.48675 56.737 2.78612ZM51.0327 14.1001C48.7887 16.4342 46.7498 16.7832 45.1061 17.0799C43.6205 17.3475 42.5483 17.5407 41.1337 19.0124C39.7191 20.4839 39.5335 21.5991 39.2758 23.1456C38.99 24.8553 38.6468 26.9809 36.403 29.3149C34.1591 31.6489 32.1156 32.0052 30.4719 32.3031C28.9828 32.5676 27.9061 32.7701 26.4972 34.2356C25.0826 35.707 24.897 36.8222 24.6393 38.3675C24.3552 40.0737 24.0116 42.2064 21.7665 44.5416C19.5226 46.8757 17.4791 47.2319 15.8354 47.5298C14.344 47.7943 13.2788 47.9849 11.8618 49.4623C11.1473 50.2055 9.99018 50.2055 9.27543 49.4623C8.5609 48.7191 8.5609 47.5143 9.27543 46.772C11.5194 44.438 13.5628 44.0817 15.2065 43.785C16.6922 43.5176 17.7643 43.3241 19.179 41.8525C20.5936 40.3811 20.7791 39.2659 21.0369 37.7194C21.3227 36.0096 21.6659 33.8841 23.9096 31.5501C26.1533 29.216 28.197 28.8598 29.8408 28.5619C31.3264 28.2943 32.3985 28.1009 33.8132 26.6294C35.2278 25.1578 35.4134 24.0427 35.6711 22.4974C35.9569 20.7877 36.3002 18.6622 38.5439 16.3281C40.7878 13.9941 42.8313 13.6378 44.475 13.3412C45.9606 13.0736 47.027 12.8866 48.4417 11.4146C49.1562 10.6714 50.3156 10.6714 51.0292 11.4146C51.6397 12.158 51.6397 13.3614 51.0327 14.1001ZM4.48632 38.2984L37.7043 3.74642L36.3893 2.36434C33.5314 -0.608319 29.0871 -0.801334 26.472 1.91838L2.7292 26.6103C0.11415 29.3387 0.299941 33.9615 3.1576 36.9283L4.48632 38.2984ZM55.8206 22.5713L22.6027 57.1233L23.9177 58.5054C26.7756 61.478 31.2199 61.6711 33.8349 58.9513L57.58 34.2526C60.1951 31.5325 60.0095 26.9097 57.1513 23.9371L55.8206 22.5713Z" fill="#EE702A"/>
</svg>
