<svg width="60" height="52" viewBox="0 0 60 52" fill="none" xmlns="http://www.w3.org/2000/svg">
<path d="M3.68531 43.9255L1.84008 41.8789C0.879051 40.8155 0.486302 39.3092 0.786687 37.8518C1.0741 36.4593 1.93408 35.339 3.14584 34.7814L10.1834 31.5374C15.0826 29.2775 19.1378 25.4231 21.9128 20.3853L24.0237 16.5502C26.9631 11.2088 31.2758 7.11161 36.4989 4.70752L45.9753 0.341174C47.4915 -0.350698 49.2867 0.0285516 50.4392 1.30788L53.9212 5.16843L43.2136 10.1005C37.5206 12.724 32.8227 17.1828 29.6247 22.9995L27.3851 27.0654C24.5212 32.2676 20.3352 36.249 15.2777 38.583L3.68531 43.9255ZM58.3841 10.122L56.1976 7.69765L44.5909 13.0482C39.5364 15.3781 35.3504 19.3565 32.4835 24.5557L30.2459 28.6295C27.0449 34.4462 22.344 38.9081 16.6468 41.5285L5.96987 46.4473L9.79417 50.6867C10.5615 51.543 11.528 52 12.6928 52C13.2229 52 13.7564 51.8873 14.2591 51.6572L23.7355 47.2909C28.9596 44.8848 33.2723 40.7876 36.2107 35.4482L38.3216 31.613C41.0915 26.5794 45.1467 22.726 50.0509 20.461L57.0886 17.217C58.3003 16.6598 59.1606 15.5391 59.4477 14.1466C59.651 12.6023 59.3445 11.1804 58.3841 10.122Z" fill="#F8A700"/>
</svg>
